<svg width="620" height="556" viewBox="0 0 620 556" version="1.1" xmlns="http://www.w3.org/2000/svg" xmlns:xlink="http://www.w3.org/1999/xlink">
<title>aten&#195;&#167;&#195;&#163;o</title>
<desc>Created using Figma</desc>
<g id="Canvas" transform="matrix(4 0 0 4 -30600 2900)">
<g id="aten&#195;&#167;&#195;&#163;o">
<clipPath id="clip-0" clip-rule="evenodd">
<path d="M 7650 -725L 7805 -725L 7805 -586L 7650 -586L 7650 -725Z" fill="#FFFFFF"/>
</clipPath>
<g id="aten&#195;&#167;&#195;&#163;o" clip-path="url(#clip-0)">
</g>
<g id="Vector">
<use xlink:href="#path0_fill" transform="translate(7722.96 -679.704)" fill="#EB3C3C"/>
</g>
<g id="Vector">
<use xlink:href="#path1_fill" transform="translate(7721.45 -625.244)" fill="#EB3C3C"/>
</g>
<g id="Vector">
<use xlink:href="#path2_fill" transform="translate(7650 -725)" fill="#EB3C3C"/>
</g>
</g>
</g>
<defs>
<path id="path0_fill" d="M 9.0808 0L 2.14338e-06 0L 2.14338e-06 45.3828L 9.0808 45.3828L 9.0808 0Z"/>
<path id="path1_fill" d="M 6.05406 -2.95496e-06C 2.71582 -2.95496e-06 -3.32593e-07 2.71452 -3.32593e-07 6.05116C -3.32593e-07 9.38781 2.71582 12.1023 6.05406 12.1023C 9.392 12.1023 12.1081 9.38781 12.1081 6.05116C 12.1081 2.71452 9.39231 -2.95496e-06 6.05406 -2.95496e-06Z"/>
<path id="path2_fill" d="M 152.529 111.674L 93.2841 9.10851C 89.9897 3.40533 84.0891 1.616e-07 77.4998 1.616e-07C 70.9109 1.616e-07 65.01 3.40533 61.7156 9.10851L 2.47099 111.674C -0.823662 117.378 -0.823662 124.188 2.47099 129.891C 5.76563 135.595 11.6659 139 18.2552 139L 136.744 139C 143.333 139 149.234 135.595 152.529 129.892C 155.824 124.188 155.824 117.378 152.529 111.674ZM 144.665 125.354C 143.011 128.215 140.051 129.924 136.744 129.924L 18.2552 129.924C 14.9488 129.924 11.988 128.215 10.3351 125.354C 8.68217 122.492 8.68217 119.075 10.3351 116.213L 69.5803 13.647C 71.2333 10.7852 74.194 9.07674 77.5001 9.07674C 80.806 9.07674 83.767 10.7852 85.42 13.647L 144.665 116.213C 146.318 119.075 146.318 122.492 144.665 125.354Z"/>
</defs>
</svg>
