<svg width="70" height="85" viewBox="0 0 70 85" version="1.1" xmlns="http://www.w3.org/2000/svg" xmlns:xlink="http://www.w3.org/1999/xlink">
<title>004-lock</title>
<desc>Created using Figma</desc>
<g id="Canvas" transform="translate(-23522 1243)">
<g id="004-lock">
<g id="Group">
<g id="Vector">
<use xlink:href="#path0_fill" transform="translate(23522 -1243)" fill="#660099"/>
</g>
<g id="Vector">
<use xlink:href="#path1_fill" transform="translate(23550.3 -1198.93)" fill="#660099"/>
</g>
</g>
</g>
</g>
<defs>
<path id="path0_fill" d="M 59.8148 31.6594L 59.8148 22.8241C 59.8148 10.2394 48.5161 0 34.6296 0C 20.7431 0 9.44444 10.2394 9.44444 22.8241L 9.44444 31.6594C 4.09102 32.5818 0 37.2473 0 42.862L 0 73.6226C 0 79.8953 5.10472 85 11.379 85L 57.8803 85C 64.1545 85 69.2593 79.8953 69.2593 73.621L 69.2593 42.8605C 69.2593 37.2473 65.1682 32.5818 59.8148 31.6594ZM 12.5926 22.8241C 12.5926 11.974 22.4778 3.14815 34.6296 3.14815C 46.7815 3.14815 56.6667 11.974 56.6667 22.8241L 56.6667 31.4815L 12.5926 31.4815L 12.5926 22.8241ZM 66.1111 73.621C 66.1111 78.1591 62.4183 81.8519 57.8803 81.8519L 11.379 81.8519C 6.84093 81.8519 3.14815 78.1591 3.14815 73.621L 3.14815 42.8605C 3.14815 38.3224 6.84093 34.6296 11.379 34.6296L 57.8803 34.6296C 62.4183 34.6296 66.1111 38.3224 66.1111 42.8605L 66.1111 73.621Z"/>
<path id="path1_fill" d="M 6.2963 0C 2.82389 0 0 2.82389 0 6.2963L 0 15.7407C 0 19.2131 2.82389 22.037 6.2963 22.037C 9.7687 22.037 12.5926 19.2131 12.5926 15.7407L 12.5926 6.2963C 12.5926 2.82389 9.7687 0 6.2963 0ZM 9.44444 15.7407C 9.44444 17.4769 8.0325 18.8889 6.2963 18.8889C 4.56009 18.8889 3.14815 17.4769 3.14815 15.7407L 3.14815 6.2963C 3.14815 4.56009 4.56009 3.14815 6.2963 3.14815C 8.0325 3.14815 9.44444 4.56009 9.44444 6.2963L 9.44444 15.7407Z"/>
</defs>
</svg>
