<svg width="65" height="85" viewBox="0 0 65 85" version="1.1" xmlns="http://www.w3.org/2000/svg" xmlns:xlink="http://www.w3.org/1999/xlink">
<title>005-smartphone-1</title>
<desc>Created using Figma</desc>
<g id="Canvas" transform="translate(-23032 1417)">
<g id="005-smartphone-1">
<g id="Group">
<g id="Vector">
<use xlink:href="#path0_fill" transform="translate(23068.1 -1346.17)" fill="#660099"/>
</g>
<g id="Vector">
<use xlink:href="#path1_fill" transform="translate(23073.8 -1375.92)" fill="#660099"/>
</g>
<g id="Vector">
<use xlink:href="#path2_fill" transform="translate(23043.9 -1405.67)" fill="#660099"/>
</g>
<g id="Vector">
<use xlink:href="#path3_fill" transform="translate(23032 -1417)" fill="#660099"/>
</g>
</g>
</g>
</g>
<defs>
<path id="path0_fill" d="M 4.9791 7.78188e-07C 2.23348 7.78188e-07 -1.86681e-06 2.22414 -1.86681e-06 4.95827C -1.86681e-06 7.6924 2.23348 9.91654 4.9791 9.91654C 7.72471 9.91654 9.95819 7.6924 9.95819 4.95827C 9.95819 2.22414 7.72329 7.78188e-07 4.9791 7.78188e-07ZM 4.9791 7.08324C 3.80261 7.08324 2.8452 6.12984 2.8452 4.95827C 2.8452 3.7867 3.80261 2.8333 4.9791 2.8333C 6.15558 2.8333 7.11299 3.7867 7.11299 4.95827C 7.11299 6.12984 6.15558 7.08324 4.9791 7.08324Z"/>
<path id="path1_fill" d="M 5.69039 11.3332C 8.82865 11.3332 11.3808 8.79172 11.3808 5.6666C 11.3808 2.54147 8.82865 7.78188e-07 5.69039 7.78188e-07C 2.55214 7.78188e-07 -1.86681e-06 2.54147 -1.86681e-06 5.6666C -1.86681e-06 8.79172 2.55072 11.3332 5.69039 11.3332ZM 5.69039 2.8333C 7.25952 2.8333 8.53559 4.10403 8.53559 5.6666C 8.53559 7.22916 7.25952 8.49989 5.69039 8.49989C 4.12127 8.49989 2.8452 7.22916 2.8452 5.6666C 2.8452 4.10403 4.12127 2.8333 5.69039 2.8333Z"/>
<path id="path2_fill" d="M 1.42296 5.66695C 1.78714 5.66695 2.15132 5.52812 2.42873 5.25187L 5.27393 2.41857C 5.83017 1.86466 5.83017 0.969342 5.27393 0.415432C 4.71769 -0.138478 3.81861 -0.138478 3.26238 0.415432L 0.417177 3.24873C -0.139059 3.80264 -0.139059 4.69796 0.417177 5.25187C 0.694584 5.52812 1.05877 5.66695 1.42296 5.66695Z"/>
<path id="path3_fill" d="M 64.5181 42.1421C 64.5181 40.8955 64.0301 39.7239 63.1453 38.8427L 62.3529 38.0537C 63.7029 36.8637 64.5167 35.1425 64.5167 33.2909C 64.5167 29.7762 61.6444 26.916 58.115 26.916C 57.856 26.916 57.6 26.9415 57.3468 26.9726C 57.378 26.7191 57.4037 26.4669 57.4037 26.2077C 57.4037 22.6929 54.5314 19.8327 51.002 19.8327C 50.743 19.8327 50.487 19.8582 50.2338 19.8894C 50.2651 19.6358 50.2907 19.3837 50.2907 19.1244C 50.2907 15.6097 47.4184 12.7495 43.889 12.7495C 43.6301 12.7495 43.374 12.775 43.1208 12.8062C 43.1521 12.5526 43.1777 12.3004 43.1777 12.0412C 43.1777 8.52645 40.3054 5.66624 36.776 5.66624C 34.9152 5.66624 33.1882 6.47798 31.9932 7.82096L 30.8636 6.69615L 25.5104 1.3653C 23.6824 -0.455098 20.7091 -0.455098 18.8839 1.3653L 1.3689 18.8071C -0.456298 20.6275 -0.456298 23.5868 1.3689 25.4072L 6.72214 30.7381L 13.7071 37.6938C 11.7781 38.7932 10.4593 40.8402 10.4593 43.2074C 10.4593 45.4217 11.6017 47.3738 13.3287 48.517C 13.4155 48.6318 13.5165 48.7451 13.6516 48.8599L 28.9531 64.0393L 28.9531 66.5836L 26.1079 66.5836L 26.1079 85L 51.7147 85L 63.0955 85L 63.0955 66.5836L 60.2503 66.5836L 60.2503 62.2911C 62.9717 59.9947 64.5181 56.6925 64.5181 53.124C 64.5181 50.659 63.7456 48.2649 62.333 46.2504L 63.1453 45.4415C 64.0301 44.5603 64.5181 43.3888 64.5181 42.1421ZM 61.6729 33.2909C 61.6729 34.3789 61.1693 35.3861 60.3399 36.0491L 55.3452 31.0753C 56.0109 30.2493 57.0238 29.7479 58.115 29.7479C 60.0767 29.7493 61.6729 31.3373 61.6729 33.2909ZM 54.5599 26.2077C 54.5599 27.2956 54.0563 28.3029 53.2269 28.9659L 48.2322 23.992C 48.8979 23.1661 49.9108 22.6646 51.002 22.6646C 52.9637 22.666 54.5599 24.2541 54.5599 26.2077ZM 47.4469 19.1244C 47.4469 20.2124 46.9433 21.2196 46.1139 21.8826L 41.1192 16.9088C 41.7849 16.0829 42.7978 15.5814 43.889 15.5814C 45.8507 15.5828 47.4469 17.1708 47.4469 19.1244ZM 36.7774 8.49954C 38.7392 8.49954 40.3339 10.0876 40.3339 12.0412C 40.3339 13.1291 39.8303 14.1364 39.0009 14.7994L 34.0062 9.82552C 34.6719 9.00103 35.6848 8.49954 36.7774 8.49954ZM 3.38045 23.4055C 2.66346 22.6901 2.66346 21.527 3.38045 20.8116L 20.8955 3.36985C 21.0733 3.19277 21.281 3.05961 21.5015 2.97036C 21.6011 2.92928 21.7135 2.93069 21.8188 2.90803C 22.072 2.85419 22.3224 2.85419 22.5756 2.90803C 22.6809 2.93069 22.7932 2.92928 22.8928 2.97036C 23.1133 3.05961 23.3196 3.19277 23.4988 3.36985L 26.8405 6.69756L 6.72214 26.7318L 3.38045 23.4055ZM 28.8521 8.7007L 30.5279 10.3695L 37.6409 17.4528L 38.4561 18.2645L 44.7539 24.536L 45.5691 25.3477L 51.8669 31.6192L 52.682 32.431L 59.795 39.5142L 61.1323 40.8459C 61.8507 41.5613 61.8507 42.7229 61.1323 43.4384L 60.5106 44.0588L 43.6187 60.8815C 42.9031 61.5955 41.7323 61.5984 41.0139 60.8815L 29.6687 49.5824L 31.0856 49.5824C 34.615 49.5824 37.4873 46.7221 37.4873 43.2074C 37.4873 39.6927 34.615 36.8325 31.0856 36.8325L 16.8638 36.8325L 8.73227 28.735L 28.8521 8.7007ZM 16.0928 39.7536L 16.6832 39.6871C 16.7415 39.6786 16.7998 39.6658 16.8596 39.6658L 31.0856 39.6658C 33.0473 39.6658 34.6421 41.2539 34.6421 43.2074C 34.6421 45.161 33.0473 46.7491 31.0856 46.7491L 26.8235 46.7491L 22.8004 46.7491L 16.8596 46.7491C 14.8978 46.7491 13.3031 45.161 13.3031 43.2074C 13.3045 41.5174 14.5009 40.105 16.0928 39.7536ZM 28.9531 82.1653L 28.9531 69.4154L 40.9399 69.4154C 45.3116 69.4154 48.8695 72.9585 48.8695 77.3118L 48.8695 82.1653L 28.9531 82.1653ZM 60.2503 82.1653L 51.7147 82.1653L 51.7147 77.3118C 51.7147 74.1867 50.3575 71.3789 48.2094 69.4154L 60.2503 69.4154L 60.2503 82.1653ZM 60.2858 48.2904C 61.1878 49.7368 61.6729 51.4098 61.6729 53.124C 61.6729 56.0352 60.3243 58.7141 57.9713 60.4778L 57.4051 60.9028L 57.4051 66.5821L 40.9385 66.5821L 31.7969 66.5821L 31.7969 62.7317L 31.2947 62.3081C 31.2307 62.2529 31.1624 62.2019 31.0386 62.1098L 18.4102 49.5809L 25.6441 49.5809L 39.0009 62.8833C 39.9156 63.7928 41.1149 64.2475 42.3141 64.2475C 43.5148 64.2475 44.7155 63.7928 45.6288 62.8833L 60.2858 48.2904Z"/>
</defs>
</svg>
