<svg width="104" height="120" viewBox="0 0 104 120" version="1.1" xmlns="http://www.w3.org/2000/svg" xmlns:xlink="http://www.w3.org/1999/xlink">
<title>download</title>
<desc>Created using Figma</desc>
<g id="Canvas" transform="matrix(4 0 0 4 -9952 9180)">
<g id="download">
<g id="Vector">
<use xlink:href="#path0_fill" transform="translate(2493.36 -2295)" fill="#FFFFFF"/>
</g>
<g id="Vector">
<use xlink:href="#path1_fill" transform="translate(2488 -2267.1)" fill="#FFFFFF"/>
</g>
</g>
</g>
<defs>
<path id="path0_fill" d="M 7.64316 0C 7.05771 0 6.58936 0.471716 6.58936 1.0537L 6.58936 20.1858L 1.80718 15.4319C 1.39429 15.0214 0.722565 15.0214 0.309671 15.4319C -0.103223 15.8423 -0.103223 16.5101 0.309671 16.9205L 6.89749 23.4694C 7.09469 23.6655 7.36584 23.7757 7.64316 23.7757C 7.92664 23.7757 8.19163 23.6655 8.38884 23.4694L 14.9767 16.9144C 15.3895 16.504 15.3895 15.8362 14.9767 15.4257C 14.5638 15.0153 13.892 15.0153 13.4791 15.4257L 8.69697 20.1797L 8.69697 1.0537C 8.70313 0.471716 8.22861 0 7.64316 0Z"/>
<path id="path1_fill" d="M 26 1.0537C 26 0.471717 25.5255 -3.73913e-07 24.94 -3.73913e-07L 1.05997 -3.73913e-07C 0.47452 -3.73913e-07 9.40338e-08 0.471717 9.40338e-08 1.0537C 9.40338e-08 1.63569 0.47452 2.10128 1.05997 2.10128L 24.9462 2.10128C 25.5317 2.10741 26 1.63569 26 1.0537Z"/>
</defs>
</svg>
