<svg width="124" height="120" viewBox="0 0 124 120" version="1.1" xmlns="http://www.w3.org/2000/svg" xmlns:xlink="http://www.w3.org/1999/xlink">
<title>manual</title>
<desc>Created using Figma</desc>
<g id="Canvas" transform="matrix(4 0 0 4 -9964 7532)">
<g id="manual">
<g id="Group">
<g id="Vector">
<use xlink:href="#path0_fill" transform="translate(2494.2 -1878.53)" fill="#FFFFFF"/>
</g>
<g id="Vector">
<use xlink:href="#path1_fill" transform="translate(2494.27 -1873.89)" fill="#FFFFFF"/>
</g>
<g id="Vector">
<use xlink:href="#path2_fill" transform="translate(2494.27 -1869.32)" fill="#FFFFFF"/>
</g>
<g id="Vector">
<use xlink:href="#path3_fill" transform="translate(2494.21 -1864.76)" fill="#FFFFFF"/>
</g>
<g id="Vector">
<use xlink:href="#path4_fill" transform="translate(2508.66 -1878.53)" fill="#FFFFFF"/>
</g>
<g id="Vector">
<use xlink:href="#path5_fill" transform="translate(2508.66 -1873.96)" fill="#FFFFFF"/>
</g>
<g id="Vector">
<use xlink:href="#path6_fill" transform="translate(2508.66 -1869.39)" fill="#FFFFFF"/>
</g>
<g id="Vector">
<use xlink:href="#path7_fill" transform="translate(2491 -1883)" fill="#FFFFFF"/>
</g>
</g>
</g>
</g>
<defs>
<path id="path0_fill" d="M 0.388889 1.96605C 3.46914 1.12654 5.91358 1.12654 8.99383 1.96605L 9.31482 0.675926C 5.97531 -0.225309 3.27778 -0.225309 4.7095e-08 0.675926L 0.388889 1.96605Z"/>
<path id="path1_fill" d="M -4.7095e-08 0.675926L 0.320988 1.89815C 3.40123 1.05864 5.84568 1.05864 8.92593 1.89815L 9.30864 0.675926C 5.97531 -0.225309 3.27778 -0.225309 -4.7095e-08 0.675926Z"/>
<path id="path2_fill" d="M -4.7095e-08 0.675926L 0.320988 1.89815C 3.40123 1.05864 5.84568 1.05864 8.92593 1.89815L 9.30864 0.675926C 5.97531 -0.225309 3.27778 -0.225309 -4.7095e-08 0.675926Z"/>
<path id="path3_fill" d="M -4.7095e-08 0.675926L 0.382716 1.89815C 3.46296 1.05864 5.90741 1.05864 8.98765 1.89815L 9.30864 0.675926C 5.97531 -0.225309 3.27778 -0.225309 -4.7095e-08 0.675926Z"/>
<path id="path4_fill" d="M -3.7676e-07 0.675926L 0.382716 1.96605C 3.46296 1.12654 5.90741 1.12654 8.98765 1.96605L 9.30864 0.675926C 5.96914 -0.225309 3.2716 -0.225309 -3.7676e-07 0.675926Z"/>
<path id="path5_fill" d="M -3.7676e-07 0.675926L 0.320988 1.96605C 3.46914 1.12654 5.84568 1.12654 8.98765 1.96605L 9.30864 0.675926C 5.96914 -0.225309 3.2716 -0.225309 -3.7676e-07 0.675926Z"/>
<path id="path6_fill" d="M -3.7676e-07 0.675926L 0.382716 1.96605C 3.46296 1.12654 5.90741 1.12654 8.98765 1.96605L 9.30864 0.675926C 5.96914 -0.225309 3.2716 -0.225309 -3.7676e-07 0.675926Z"/>
<path id="path7_fill" d="M 29.7963 1.54321C 26.7778 0.450617 24.5309 0 22.3457 0C 20.2161 0 18.0247 0.425926 15.1235 1.46296C 12.2161 0.425926 10.0247 0 7.90124 0C 5.71605 0 3.46914 0.450617 0.450617 1.54321C 0.191358 1.60494 1.17738e-08 1.8642 1.17738e-08 2.12346L 1.17738e-08 25.0309C 1.17738e-08 25.642 0.641975 25.6728 0.833333 25.6111C 3.66049 24.5802 5.77778 24.1296 7.83333 24.1296C 9.88889 24.1296 11.9444 24.5802 14.8333 25.6111C 15.0309 25.6605 15.179 25.642 15.2901 25.5988C 16 25.3457 17.2469 24.9383 18.0679 24.6852C 18.2593 24.9938 18.4877 25.284 18.7531 25.5494C 20.4753 27.2716 23.1667 27.4198 25.0556 25.9938L 29.0556 30L 29.963 29.0926L 25.9691 25.0864C 26.0926 24.9259 26.2037 24.7654 26.3025 24.5926C 27.2716 24.8827 28.5494 25.3086 29.4136 25.6111C 29.6049 25.6728 30.2469 25.6728 30.2469 25.0309L 30.2469 2.12346C 30.2469 1.8642 30.0556 1.60494 29.7963 1.54321ZM 14.4506 24.1296C 11.8148 23.2284 9.82716 22.8395 7.83333 22.8395C 5.83951 22.8395 3.79012 23.2284 1.21605 24.1296L 1.21605 2.57407C 3.85185 1.60494 5.84568 1.22222 7.83333 1.22222C 9.82099 1.22222 11.8148 1.61111 14.4506 2.57407L 14.4506 24.1296ZM 19.6605 24.642C 18.284 23.2593 18.284 21.0185 19.6605 19.6358C 21.037 18.2531 23.2778 18.2531 24.6543 19.6358C 26.0309 21.0185 26.0309 23.2593 24.6543 24.642C 23.2716 26.0247 21.037 26.0247 19.6605 24.642ZM 28.963 24.1296C 28.4259 23.9506 27.4753 23.6605 26.7901 23.4506C 27.2469 21.821 26.8395 20 25.5617 18.7222C 23.679 16.8395 20.6296 16.8395 18.7531 18.7222C 17.4506 20.0247 17.0494 21.8889 17.5494 23.537C 17.0123 23.7099 16.2161 23.963 15.6728 24.1358L 15.6728 2.59259C 18.3889 1.53704 20.5 1.21605 22.4136 1.21605C 24.3395 1.21605 26.3333 1.60494 28.963 2.5679L 28.963 24.1296Z"/>
</defs>
</svg>
