<svg width="2560" height="948" viewBox="0 0 2560 948" version="1.1" xmlns="http://www.w3.org/2000/svg" xmlns:xlink="http://www.w3.org/1999/xlink">
<title>solicitacaoaberto1</title>
<desc>Created using Figma</desc>
<g id="Canvas" transform="matrix(4 0 0 4 -47004 7580)">
<g id="solicitacaoaberto1">
<g id="Rectangle">
<use xlink:href="#path0_fill" transform="translate(11751 -1895)" fill="#660099"/>
</g>
<g id="solicitacaoaberto">
<g id="browser">
<g id="Group">
<g id="Group">
<g id="Vector">
<use xlink:href="#path1_fill" transform="translate(11969 -1857)" fill="#FFFFFF"/>
</g>
</g>
</g>
<g id="Group">
<g id="Group">
<g id="Vector">
<use xlink:href="#path2_fill" transform="translate(11986.5 -1842.96)" fill="#FFFFFF"/>
</g>
</g>
</g>
<g id="Group">
<g id="Group">
<g id="Vector">
<use xlink:href="#path3_fill" transform="translate(12000.6 -1842.96)" fill="#FFFFFF"/>
</g>
</g>
</g>
<g id="Group">
<g id="Group">
<g id="Vector">
<use xlink:href="#path4_fill" transform="translate(12014.6 -1842.96)" fill="#FFFFFF"/>
</g>
</g>
</g>
<g id="Group">
<g id="Group">
<g id="Vector">
<use xlink:href="#path5_fill" transform="translate(12014.6 -1793.83)" fill="#FFFFFF"/>
</g>
</g>
</g>
<g id="Group">
<g id="Group">
<g id="Vector">
<use xlink:href="#path6_fill" transform="translate(12095.3 -1793.83)" fill="#FFFFFF"/>
</g>
</g>
</g>
<g id="Group">
<g id="Group">
<g id="Vector">
<use xlink:href="#path7_fill" transform="translate(12053.2 -1797.34)" fill="#FFFFFF"/>
</g>
</g>
</g>
</g>
<g id="Group">
<g id="Ellipse">
<use xlink:href="#path8_fill" transform="translate(11939 -1772)" fill="#660099"/>
</g>
<g id="Vector">
<use xlink:href="#path9_fill" transform="matrix(-1 0 0 1 12019 -1765)" fill="#FFFFFF"/>
<use xlink:href="#path10_fill" transform="matrix(-1 0 0 1 12019 -1765)" fill="#FFFFFF"/>
</g>
</g>
</g>
</g>
</g>
<defs>
<path id="path0_fill" d="M 0 10C 0 4.47715 4.47715 0 10 0L 630 0C 635.523 0 640 4.47715 640 10L 640 237L 0 237L 0 10Z"/>
<path id="path1_fill" d="M 185.786 7.26394e-07L 17.3282 7.26394e-07C 7.7735 7.26394e-07 0 7.7735 0 17.3282L 0 143.672C 0 153.227 7.7735 161 17.3282 161L 185.786 161C 195.341 161 203.115 153.227 203.115 143.672L 203.115 17.3282C 203.115 7.7735 195.341 7.26394e-07 185.786 7.26394e-07ZM 196.534 143.672C 196.534 149.598 191.713 154.42 185.786 154.42L 17.3282 154.42C 11.4018 154.42 6.5802 149.598 6.5802 143.672L 6.5802 34.6568L 196.534 34.6568L 196.534 143.672L 196.534 143.672ZM 196.534 28.0762L 6.5802 28.0762L 6.5802 17.3282C 6.5802 11.4018 11.4018 6.5802 17.3282 6.5802L 185.786 6.5802C 191.713 6.5802 196.534 11.4018 196.534 17.3282L 196.534 28.0762Z"/>
<path id="path2_fill" d="M 6.79997 1.13802e-06L 3.2903 1.13802e-06C 1.47337 1.13802e-06 6.77968e-07 1.47298 6.77968e-07 3.2903C 6.77968e-07 5.10722 1.47298 6.58059 3.2903 6.58059L 6.79997 6.58059C 8.6169 6.58059 10.0903 5.10762 10.0903 3.2903C 10.0899 1.47298 8.6169 1.13802e-06 6.79997 1.13802e-06Z"/>
<path id="path3_fill" d="M 6.79997 1.13802e-06L 3.2903 1.13802e-06C 1.47337 1.13802e-06 1.30751e-06 1.47298 1.30751e-06 3.2903C 1.30751e-06 5.10722 1.47298 6.58059 3.2903 6.58059L 6.79997 6.58059C 8.6169 6.58059 10.0903 5.10762 10.0903 3.2903C 10.0903 1.47298 8.61729 1.13802e-06 6.79997 1.13802e-06Z"/>
<path id="path4_fill" d="M 6.79997 1.13802e-06L 3.2903 1.13802e-06C 1.47338 1.13802e-06 -1.30751e-06 1.47298 -1.30751e-06 3.2903C -1.30751e-06 5.10722 1.47298 6.58059 3.2903 6.58059L 6.79997 6.58059C 8.6169 6.58059 10.0903 5.10762 10.0903 3.2903C 10.0903 1.47298 8.6169 1.13802e-06 6.79997 1.13802e-06Z"/>
<path id="path5_fill" d="M 7.66242 31.3669L 30.3335 5.45711C 31.53 4.08926 31.3911 2.01091 30.0237 0.814045C 28.6562 -0.382427 26.5779 -0.243979 25.381 1.12387L 0.814044 29.2001C -0.271349 30.4406 -0.271349 32.2928 0.814044 33.5333L 25.381 61.6096C 26.0316 62.3526 26.9428 62.733 27.8584 62.733C 28.6276 62.733 29.3996 62.4649 30.0237 61.9194C 31.3911 60.7225 31.5296 58.6442 30.3335 57.2767L 7.66242 31.3669Z"/>
<path id="path6_fill" d="M 30.3336 29.199L 5.76671 1.12357C 4.56985 -0.243878 2.49149 -0.382325 1.12404 0.813749C -0.243415 2.01062 -0.381868 4.08897 0.814207 5.45643L 23.4853 31.3662L 0.814207 57.276C -0.382662 58.6439 -0.243811 60.7218 1.12404 61.9187C 1.74846 62.465 2.52044 62.7323 3.28926 62.7323C 4.20486 62.7323 5.11651 62.3519 5.76671 61.6089L 30.3336 33.5326C 31.419 32.2917 31.419 30.4395 30.3336 29.199Z"/>
<path id="path7_fill" d="M 32.6443 0.258547C 30.9686 -0.446403 29.0398 0.339871 28.3349 2.01358L 0.258658 68.6951C -0.446292 70.37 0.339188 72.2988 2.01369 73.0045C 2.43103 73.1798 2.86344 73.2631 3.28911 73.2631C 4.57325 73.2631 5.79313 72.5062 6.32314 71.2491L 34.3994 4.56798C 35.1047 2.89308 34.3188 0.963498 32.6443 0.258547Z"/>
<path id="path8_fill" d="M 86 43C 86 66.7482 66.7482 86 43 86C 19.2518 86 0 66.7482 0 43C 0 19.2518 19.2518 0 43 0C 66.7482 0 86 19.2518 86 43Z"/>
<path id="path9_fill" fill-rule="evenodd" d="M 35.7578 60.2236C 49.2699 60.2236 60.2236 49.2699 60.2236 35.7578C 60.2236 22.2457 49.2699 11.2919 35.7578 11.2919C 22.2457 11.2919 11.2919 22.2457 11.2919 35.7578C 11.2919 49.2699 22.2457 60.2236 35.7578 60.2236ZM 35.7578 63.3602C 51.0022 63.3602 63.3602 51.0022 63.3602 35.7578C 63.3602 20.5133 51.0022 8.15528 35.7578 8.15528C 20.5133 8.15528 8.15528 20.5133 8.15528 35.7578C 8.15528 51.0022 20.5133 63.3602 35.7578 63.3602Z"/>
<path id="path10_fill" d="M 98.1177 84.3025L 73.2503 59.4351C 70.9843 57.1691 67.8833 56.2746 64.9215 56.7119C 69.1555 50.828 71.6601 43.6123 71.6601 35.84C 71.6601 16.0813 55.5987 0 35.84 0C 16.0813 0 0 16.0813 0 35.84C 0 55.5987 16.0813 71.68 35.84 71.68C 43.6123 71.68 50.8081 69.1754 56.692 64.9612C 56.6324 65.4184 56.5727 65.8756 56.5727 66.3527C 56.5727 68.9567 57.5865 71.4216 59.4351 73.2702L 84.3025 98.1376C 86.1512 99.9862 88.5961 101 91.22 101C 93.8241 101 96.2889 99.9862 98.1376 98.1376C 99.9862 96.2889 101 93.8439 101 91.22C 100.98 88.5961 99.9663 86.1512 98.1177 84.3025ZM 35.84 68.42C 17.8703 68.4001 3.25999 53.7898 3.25999 35.84C 3.25999 17.8703 17.8703 3.25999 35.84 3.25999C 53.8097 3.25999 68.42 17.8703 68.42 35.84C 68.42 53.8097 53.8097 68.42 35.84 68.42ZM 95.8119 95.8119C 93.347 98.2767 89.0533 98.2767 86.5885 95.8119L 61.741 70.9445C 60.5086 69.7121 59.8327 68.0821 59.8327 66.3328C 59.8327 64.5835 60.5086 62.9536 61.741 61.7211C 63.0132 60.4489 64.6829 59.8128 66.3527 59.8128C 68.0224 59.8128 69.6922 60.4489 70.9644 61.7211L 95.8119 86.6084C 97.0443 87.8408 97.7201 89.4708 97.7201 91.22C 97.7201 92.9494 97.0443 94.5794 95.8119 95.8119Z"/>
</defs>
</svg>
