<svg width="146" height="56" viewBox="0 0 146 56" version="1.1" xmlns="http://www.w3.org/2000/svg" xmlns:xlink="http://www.w3.org/1999/xlink">
<title>Logo_VIVO</title>
<desc>Created using Figma</desc>
<g id="Canvas" transform="translate(-5359 821)">
<g id="Logo_VIVO">
<g id="layer1">
<g id="g3009">
<g id="Camada x0020 1">
<g id="299199640">
<g id="path2994">
<use xlink:href="#path0_fill" transform="matrix(0.0354331 0 0 0.0354331 5406.06 -802.191)" fill="#660099"/>
</g>
<g id="path2996">
<use xlink:href="#path1_fill" transform="matrix(0.0354331 0 0 0.0354331 5405.35 -821)" fill="#660099"/>
</g>
<g id="path2998">
<use xlink:href="#path2_fill" transform="matrix(0.0354331 0 0 0.0354331 5467.69 -802.536)" fill="#660099"/>
</g>
<g id="path3000">
<use xlink:href="#path3_fill" transform="matrix(0.0354331 0 0 0.0354331 5424.02 -802.849)" fill="#660099"/>
</g>
<g id="path3002">
<use xlink:href="#path4_fill" transform="matrix(0.0354331 0 0 0.0354331 5359 -802.849)" fill="#660099"/>
</g>
</g>
</g>
</g>
</g>
</g>
</g>
<defs>
<path id="path0_fill" d="M 0 882.997L 0 131.964C 0 55.5921 50.9703 0 120.818 0L 233.816 0C 303.664 0 354.365 55.3222 354.365 131.964L 354.365 882.997C 354.365 959.369 303.664 1014.96 233.816 1014.96L 120.818 1014.96C 50.9703 1014.96 0 959.638 0 882.997Z"/>
<path id="path1_fill" d="M 399.132 199.7C 399.132 310.074 309.867 399.4 199.566 399.4C 89.2654 399.4 0 310.074 0 199.7C 0 89.3252 89.2654 0 199.566 0C 309.867 0 399.132 89.3252 399.132 199.7Z"/>
<path id="path2_fill" d="M 0 516.251C 0 231.544 235.974 0 526.423 0C 816.603 0 1052.85 231.544 1052.85 516.251C 1052.85 800.958 816.603 1032.5 526.423 1032.5C 236.243 1032.5 0 800.958 0 516.251ZM 320.385 516.251C 320.385 629.864 412.617 722.427 526.423 722.427C 639.96 722.427 732.462 629.864 732.462 516.251C 732.462 402.368 639.96 309.805 526.423 309.805C 412.617 309.805 320.385 402.368 320.385 516.251Z"/>
<path id="path3_fill" d="M 587.853 1013.56C 522.859 1013.56 458.674 1001.69 427.121 943.936C 395.568 886.454 40.9334 264.147 13.1559 215.031C -12.1944 170.234 -3.02511 92.5129 59.2719 61.4785C 97.2974 42.588 116.175 32.8728 149.346 16.1412C 208.137 -13.274 281.492 -7.06712 327.608 73.3525C 355.385 121.388 586.235 583.397 586.235 583.397L 588.392 583.397C 588.392 583.397 819.511 121.658 847.289 73.3525C 893.405 -7.06712 967.028 -13.274 1025.82 16.1412C 1059.26 32.8728 1077.87 42.588 1115.89 61.4785C 1178.19 92.243 1187.63 170.234 1162.01 215.031C 1128.03 274.941 781.216 886.994 748.045 943.936C 714.604 1000.88 652.307 1013.56 587.853 1013.56Z"/>
<path id="path4_fill" d="M 587.583 1013.56C 522.589 1013.56 458.404 1001.69 427.121 943.936C 395.568 886.454 40.9334 264.147 13.1559 215.031C -12.1944 170.234 -3.02511 92.5129 59.2719 61.4785C 97.0277 42.588 115.906 32.8728 149.346 16.1412C 207.868 -13.0041 281.492 -6.79725 327.608 73.3525C 355.385 121.388 585.965 583.397 585.965 583.397L 588.392 583.397C 588.392 583.397 819.511 121.658 847.019 73.3525C 893.135 -7.06712 966.759 -13.274 1025.28 16.1412C 1058.72 32.8728 1077.6 42.8578 1115.35 61.4785C 1177.92 92.243 1187.09 170.234 1161.74 215.031C 1127.49 274.941 780.946 886.994 747.506 943.936C 714.334 1000.88 652.037 1013.56 587.313 1013.56L 587.583 1013.56Z"/>
</defs>
</svg>
