<svg width="1116" height="140" viewBox="0 0 1116 140" version="1.1" xmlns="http://www.w3.org/2000/svg" xmlns:xlink="http://www.w3.org/1999/xlink">
<title>syscor</title>
<desc>Created using Figma</desc>
<g id="Canvas" transform="matrix(4 0 0 4 -24284 -2636)">
<g id="syscor">
<g id="Vivo GO">
<use xlink:href="#path0_fill" transform="translate(6071.65 663.15)" fill="#34133D"/>
<use xlink:href="#path1_fill" transform="translate(6071.65 663.15)" fill="#34133D"/>
<use xlink:href="#path2_fill" transform="translate(6071.65 663.15)" fill="#34133D"/>
<use xlink:href="#path3_fill" transform="translate(6071.65 663.15)" fill="#34133D"/>
<use xlink:href="#path4_fill" transform="translate(6071.65 663.15)" fill="#34133D"/>
<use xlink:href="#path5_fill" transform="translate(6071.65 663.15)" fill="#34133D"/>
</g>
<g id="Vector (Stroke)">
<use xlink:href="#path6_fill" transform="translate(6223 659)" fill="#34133D"/>
</g>
<g id="Software de gest&#195;&#163;o de revendas Vivo">
<use xlink:href="#path7_fill" transform="translate(6234.67 661.053)" fill="#1F0B24"/>
<use xlink:href="#path8_fill" transform="translate(6234.67 661.053)" fill="#1F0B24"/>
<use xlink:href="#path9_fill" transform="translate(6234.67 661.053)" fill="#1F0B24"/>
<use xlink:href="#path10_fill" transform="translate(6234.67 661.053)" fill="#1F0B24"/>
<use xlink:href="#path11_fill" transform="translate(6234.67 661.053)" fill="#1F0B24"/>
<use xlink:href="#path12_fill" transform="translate(6234.67 661.053)" fill="#1F0B24"/>
<use xlink:href="#path13_fill" transform="translate(6234.67 661.053)" fill="#1F0B24"/>
<use xlink:href="#path14_fill" transform="translate(6234.67 661.053)" fill="#1F0B24"/>
<use xlink:href="#path15_fill" transform="translate(6234.67 661.053)" fill="#1F0B24"/>
<use xlink:href="#path16_fill" transform="translate(6234.67 661.053)" fill="#1F0B24"/>
<use xlink:href="#path17_fill" transform="translate(6234.67 661.053)" fill="#1F0B24"/>
<use xlink:href="#path18_fill" transform="translate(6234.67 661.053)" fill="#1F0B24"/>
<use xlink:href="#path19_fill" transform="translate(6234.67 661.053)" fill="#1F0B24"/>
<use xlink:href="#path20_fill" transform="translate(6234.67 661.053)" fill="#1F0B24"/>
<use xlink:href="#path21_fill" transform="translate(6234.67 661.053)" fill="#1F0B24"/>
<use xlink:href="#path22_fill" transform="translate(6234.67 661.053)" fill="#1F0B24"/>
<use xlink:href="#path23_fill" transform="translate(6234.67 661.053)" fill="#1F0B24"/>
<use xlink:href="#path24_fill" transform="translate(6234.67 661.053)" fill="#1F0B24"/>
<use xlink:href="#path25_fill" transform="translate(6234.67 661.053)" fill="#1F0B24"/>
<use xlink:href="#path26_fill" transform="translate(6234.67 661.053)" fill="#1F0B24"/>
<use xlink:href="#path27_fill" transform="translate(6234.67 661.053)" fill="#1F0B24"/>
<use xlink:href="#path28_fill" transform="translate(6234.67 661.053)" fill="#1F0B24"/>
<use xlink:href="#path29_fill" transform="translate(6234.67 661.053)" fill="#1F0B24"/>
<use xlink:href="#path30_fill" transform="translate(6234.67 661.053)" fill="#1F0B24"/>
<use xlink:href="#path31_fill" transform="translate(6234.67 661.053)" fill="#1F0B24"/>
<use xlink:href="#path32_fill" transform="translate(6234.67 661.053)" fill="#1F0B24"/>
<use xlink:href="#path33_fill" transform="translate(6234.67 661.053)" fill="#1F0B24"/>
<use xlink:href="#path34_fill" transform="translate(6234.67 661.053)" fill="#1F0B24"/>
<use xlink:href="#path35_fill" transform="translate(6234.67 661.053)" fill="#1F0B24"/>
<use xlink:href="#path36_fill" transform="translate(6234.67 661.053)" fill="#1F0B24"/>
</g>
</g>
</g>
<defs>
<path id="path0_fill" d="M 12.775 17.5L 18.725 0.35L 25.55 0.35L 16.275 24.85L 9.275 24.85L 0 0.35L 6.825 0.35L 12.775 17.5Z"/>
<path id="path1_fill" d="M 34.6486 7L 34.6486 24.85L 28.5236 24.85L 28.5236 11.725L 25.8986 11.725L 25.8986 7L 34.6486 7ZM 28.5236 0L 34.6486 0L 34.6486 4.9L 28.5236 4.9L 28.5236 0Z"/>
<path id="path2_fill" d="M 50.5846 6.3L 57.0596 6.3L 50.0596 24.85L 43.0596 24.85L 36.0596 6.3L 42.5346 6.3L 46.5596 18.9L 50.5846 6.3Z"/>
<path id="path3_fill" d="M 77.0205 19.6C 77.0205 21.35 76.5188 22.7267 75.5155 23.73C 74.5355 24.71 73.1705 25.2 71.4205 25.2L 63.3705 25.2C 61.6205 25.2 60.2438 24.71 59.2405 23.73C 58.2605 22.7267 57.7705 21.35 57.7705 19.6L 57.7705 11.55C 57.7705 9.8 58.2605 8.435 59.2405 7.455C 60.2438 6.45167 61.6205 5.95 63.3705 5.95L 71.4205 5.95C 73.1705 5.95 74.5355 6.45167 75.5155 7.455C 76.5188 8.435 77.0205 9.8 77.0205 11.55L 77.0205 19.6ZM 70.8955 12.075C 70.8955 11.1417 70.4288 10.675 69.4955 10.675L 65.2955 10.675C 64.3622 10.675 63.8955 11.1417 63.8955 12.075L 63.8955 19.075C 63.8955 20.0083 64.3622 20.475 65.2955 20.475L 69.4955 20.475C 70.4288 20.475 70.8955 20.0083 70.8955 19.075L 70.8955 12.075Z"/>
<path id="path4_fill" d="M 96.9596 25.2C 94.6729 25.2 92.9929 24.6633 91.9196 23.59C 90.8462 22.5167 90.3096 20.8367 90.3096 18.55L 90.3096 7.35C 90.3096 4.9 90.8579 3.12667 91.9546 2.03C 93.0746 0.91 94.8596 0.35 97.3096 0.35L 109.91 0.35L 109.91 5.25L 98.7096 5.25C 97.3096 5.25 96.6096 5.95 96.6096 7.35L 96.6096 18.55C 96.6096 19.0867 96.7612 19.5183 97.0646 19.845C 97.3912 20.1483 97.8229 20.3 98.3596 20.3C 99.0596 20.3 99.8296 20.3 100.67 20.3C 101.533 20.2767 102.338 20.2533 103.085 20.23C 103.948 20.2067 104.823 20.1717 105.71 20.125L 105.71 15.05L 101.16 15.05L 101.16 10.85L 112.01 10.85L 112.01 24.325C 110.26 24.5117 108.498 24.6633 106.725 24.78C 105.208 24.8967 103.575 24.99 101.825 25.06C 100.075 25.1533 98.4529 25.2 96.9596 25.2Z"/>
<path id="path5_fill" d="M 131.266 7C 131.266 5.6 130.566 4.9 129.166 4.9L 123.216 4.9C 121.816 4.9 121.116 5.6 121.116 7L 121.116 18.2C 121.116 19.6 121.816 20.3 123.216 20.3L 129.166 20.3C 130.566 20.3 131.266 19.6 131.266 18.2L 131.266 7ZM 137.566 18.2C 137.566 20.65 137.006 22.435 135.886 23.555C 134.79 24.6517 133.016 25.2 130.566 25.2L 121.816 25.2C 119.366 25.2 117.581 24.6517 116.461 23.555C 115.365 22.435 114.816 20.65 114.816 18.2L 114.816 7C 114.816 4.55 115.365 2.77667 116.461 1.68C 117.581 0.56 119.366 0 121.816 0L 130.566 0C 133.016 0 134.79 0.56 135.886 1.68C 137.006 2.77667 137.566 4.55 137.566 7L 137.566 18.2Z"/>
<path id="path6_fill" fill-rule="evenodd" d="M 0 35L 0 0L 1 0L 1 35L 0 35Z"/>
<path id="path7_fill" d="M 5.83984 7.47754C 5.83984 8.29427 5.54362 8.93115 4.95117 9.38818C 4.35872 9.84521 3.55469 10.0737 2.53906 10.0737C 1.4388 10.0737 0.592448 9.93197 0 9.64844L 0 8.60742C 0.380859 8.76823 0.795573 8.89518 1.24414 8.98828C 1.69271 9.08138 2.13704 9.12793 2.57715 9.12793C 3.29655 9.12793 3.83822 8.99251 4.20215 8.72168C 4.56608 8.44661 4.74805 8.06576 4.74805 7.5791C 4.74805 7.25749 4.68245 6.99512 4.55127 6.79199C 4.42432 6.58464 4.2085 6.39421 3.90381 6.2207C 3.60335 6.0472 3.14421 5.85042 2.52637 5.63037C 1.66309 5.32145 1.04525 4.9554 0.672852 4.53223C 0.304688 4.10905 0.120605 3.5568 0.120605 2.87549C 0.120605 2.16032 0.389323 1.59115 0.926758 1.16797C 1.46419 0.744792 2.17513 0.533203 3.05957 0.533203C 3.9821 0.533203 4.83057 0.702474 5.60498 1.04102L 5.26855 1.98047C 4.5026 1.65885 3.75781 1.49805 3.03418 1.49805C 2.46289 1.49805 2.01644 1.62077 1.69482 1.86621C 1.37321 2.11165 1.2124 2.45231 1.2124 2.88818C 1.2124 3.2098 1.27165 3.47428 1.39014 3.68164C 1.50863 3.88477 1.70752 4.07308 1.98682 4.24658C 2.27035 4.41585 2.70199 4.60417 3.28174 4.81152C 4.25505 5.15853 4.92367 5.53092 5.2876 5.92871C 5.65576 6.3265 5.83984 6.84277 5.83984 7.47754Z"/>
<path id="path8_fill" d="M 13.584 6.46191C 13.584 7.59603 13.2983 8.48258 12.7271 9.12158C 12.1558 9.75635 11.3665 10.0737 10.3594 10.0737C 9.7373 10.0737 9.18506 9.92773 8.70264 9.63574C 8.22021 9.34375 7.84782 8.9248 7.58545 8.37891C 7.32308 7.83301 7.19189 7.19401 7.19189 6.46191C 7.19189 5.3278 7.47542 4.44548 8.04248 3.81494C 8.60954 3.18018 9.39665 2.86279 10.4038 2.86279C 11.3771 2.86279 12.1494 3.18652 12.7207 3.83398C 13.2962 4.48145 13.584 5.35742 13.584 6.46191ZM 8.28369 6.46191C 8.28369 7.35059 8.46143 8.02767 8.81689 8.49316C 9.17236 8.95866 9.69499 9.19141 10.3848 9.19141C 11.0745 9.19141 11.5972 8.96077 11.9526 8.49951C 12.3123 8.03402 12.4922 7.35482 12.4922 6.46191C 12.4922 5.57747 12.3123 4.90674 11.9526 4.44971C 11.5972 3.98844 11.0703 3.75781 10.3721 3.75781C 9.68229 3.75781 9.16178 3.98421 8.81055 4.43701C 8.45931 4.88981 8.28369 5.56478 8.28369 6.46191Z"/>
<path id="path9_fill" d="M 18.5732 3.80859L 16.8022 3.80859L 16.8022 9.94678L 15.7485 9.94678L 15.7485 3.80859L 14.5044 3.80859L 14.5044 3.33252L 15.7485 2.95166L 15.7485 2.56445C 15.7485 0.854818 16.4954 0 17.9893 0C 18.3574 0 18.7891 0.074056 19.2842 0.222168L 19.0112 1.06641C 18.605 0.935221 18.258 0.869629 17.9702 0.869629C 17.5724 0.869629 17.2783 1.00293 17.0879 1.26953C 16.8975 1.5319 16.8022 1.95508 16.8022 2.53906L 16.8022 2.98975L 18.5732 2.98975L 18.5732 3.80859Z"/>
<path id="path10_fill" d="M 22.0898 9.2041C 22.276 9.2041 22.4559 9.19141 22.6294 9.16602C 22.8029 9.13639 22.9404 9.10677 23.042 9.07715L 23.042 9.8833C 22.9277 9.93831 22.7585 9.98275 22.5342 10.0166C 22.3141 10.0547 22.1152 10.0737 21.9375 10.0737C 20.5918 10.0737 19.9189 9.36491 19.9189 7.94727L 19.9189 3.80859L 18.9224 3.80859L 18.9224 3.30078L 19.9189 2.86279L 20.3633 1.37744L 20.9727 1.37744L 20.9727 2.98975L 22.9912 2.98975L 22.9912 3.80859L 20.9727 3.80859L 20.9727 7.90283C 20.9727 8.32178 21.0721 8.64339 21.271 8.86768C 21.4699 9.09196 21.7428 9.2041 22.0898 9.2041Z"/>
<path id="path11_fill" d="M 30.1196 9.94678L 28.8438 5.86523C 28.7633 5.61556 28.6131 5.0485 28.3931 4.16406L 28.3423 4.16406C 28.173 4.90462 28.0249 5.47591 27.8979 5.87793L 26.584 9.94678L 25.3652 9.94678L 23.4673 2.98975L 24.5718 2.98975C 25.0203 4.73747 25.361 6.06836 25.5938 6.98242C 25.8307 7.89648 25.9661 8.51221 26 8.82959L 26.0508 8.82959C 26.0973 8.58838 26.1714 8.27734 26.2729 7.89648C 26.3787 7.51139 26.4697 7.20671 26.5459 6.98242L 27.8218 2.98975L 28.9644 2.98975L 30.2085 6.98242C 30.4455 7.71029 30.6063 8.32178 30.6909 8.81689L 30.7417 8.81689C 30.7586 8.66455 30.8031 8.42969 30.875 8.1123C 30.9512 7.79492 31.3934 6.0874 32.2017 2.98975L 33.2935 2.98975L 31.3701 9.94678L 30.1196 9.94678Z"/>
<path id="path12_fill" d="M 38.835 9.94678L 38.6255 8.95654L 38.5747 8.95654C 38.2277 9.39242 37.8807 9.68864 37.5337 9.84521C 37.1909 9.99756 36.7614 10.0737 36.2451 10.0737C 35.5553 10.0737 35.0137 9.896 34.6201 9.54053C 34.2308 9.18506 34.0361 8.67936 34.0361 8.02344C 34.0361 6.61849 35.1597 5.88216 37.4067 5.81445L 38.5874 5.77637L 38.5874 5.34473C 38.5874 4.79883 38.4689 4.39681 38.2319 4.13867C 37.9992 3.8763 37.6247 3.74512 37.1084 3.74512C 36.5286 3.74512 35.8727 3.92285 35.1406 4.27832L 34.8169 3.47217C 35.1597 3.28597 35.5342 3.13997 35.9404 3.03418C 36.3509 2.92839 36.7614 2.87549 37.1719 2.87549C 38.0013 2.87549 38.6149 3.05957 39.0127 3.42773C 39.4147 3.7959 39.6157 4.38623 39.6157 5.19873L 39.6157 9.94678L 38.835 9.94678ZM 36.4546 9.2041C 37.1105 9.2041 37.6247 9.02425 37.9971 8.66455C 38.3737 8.30485 38.562 7.80127 38.562 7.15381L 38.562 6.52539L 37.5083 6.56982C 36.6704 6.59945 36.0653 6.73063 35.6929 6.96338C 35.3247 7.19189 35.1406 7.54948 35.1406 8.03613C 35.1406 8.41699 35.2549 8.70687 35.4834 8.90576C 35.7161 9.10465 36.0399 9.2041 36.4546 9.2041Z"/>
<path id="path13_fill" d="M 44.9668 2.86279C 45.2757 2.86279 45.5529 2.88818 45.7983 2.93896L 45.6523 3.9165C 45.3646 3.85303 45.1107 3.82129 44.8906 3.82129C 44.3278 3.82129 43.8454 4.0498 43.4434 4.50684C 43.0456 4.96387 42.8467 5.53304 42.8467 6.21436L 42.8467 9.94678L 41.793 9.94678L 41.793 2.98975L 42.6626 2.98975L 42.7832 4.27832L 42.834 4.27832C 43.0921 3.82552 43.4032 3.4764 43.7671 3.23096C 44.131 2.98551 44.5309 2.86279 44.9668 2.86279Z"/>
<path id="path14_fill" d="M 50.0386 10.0737C 49.0103 10.0737 48.1978 9.76058 47.6011 9.13428C 47.0086 8.50798 46.7124 7.63835 46.7124 6.52539C 46.7124 5.40397 46.9875 4.51318 47.5376 3.85303C 48.092 3.19287 48.8346 2.86279 49.7656 2.86279C 50.6374 2.86279 51.3271 3.15055 51.835 3.72607C 52.3428 4.29736 52.5967 5.05273 52.5967 5.99219L 52.5967 6.65869L 47.8042 6.65869C 47.8254 7.47542 48.0306 8.09538 48.4199 8.51855C 48.8135 8.94173 49.3657 9.15332 50.0767 9.15332C 50.8257 9.15332 51.5662 8.99674 52.2983 8.68359L 52.2983 9.62305C 51.9259 9.78385 51.5726 9.89811 51.2383 9.96582C 50.9082 10.0378 50.5083 10.0737 50.0386 10.0737ZM 49.7529 3.74512C 49.1943 3.74512 48.7479 3.92708 48.4136 4.29102C 48.0835 4.65495 47.8888 5.15853 47.8296 5.80176L 51.4668 5.80176C 51.4668 5.13737 51.3187 4.62956 51.0225 4.27832C 50.7262 3.92285 50.3031 3.74512 49.7529 3.74512Z"/>
<path id="path15_fill" d="M 62.5117 9.01367L 62.4546 9.01367C 61.9679 9.72038 61.2401 10.0737 60.271 10.0737C 59.3612 10.0737 58.6523 9.7627 58.1445 9.14062C 57.641 8.51855 57.3892 7.63411 57.3892 6.4873C 57.3892 5.34049 57.6431 4.44971 58.1509 3.81494C 58.6587 3.18018 59.3654 2.86279 60.271 2.86279C 61.2147 2.86279 61.9383 3.20557 62.4419 3.89111L 62.5244 3.89111L 62.48 3.38965L 62.4546 2.90088L 62.4546 0.0698242L 63.5083 0.0698242L 63.5083 9.94678L 62.6514 9.94678L 62.5117 9.01367ZM 60.4043 9.19141C 61.1237 9.19141 61.6442 8.99674 61.9658 8.60742C 62.2917 8.21387 62.4546 7.58122 62.4546 6.70947L 62.4546 6.4873C 62.4546 5.5013 62.2896 4.79883 61.9595 4.37988C 61.6336 3.95671 61.111 3.74512 60.3916 3.74512C 59.7738 3.74512 59.2998 3.98633 58.9697 4.46875C 58.6439 4.94694 58.481 5.62402 58.481 6.5C 58.481 7.38867 58.6439 8.05941 58.9697 8.51221C 59.2956 8.96501 59.7738 9.19141 60.4043 9.19141Z"/>
<path id="path16_fill" d="M 68.688 10.0737C 67.6597 10.0737 66.8472 9.76058 66.2505 9.13428C 65.658 8.50798 65.3618 7.63835 65.3618 6.52539C 65.3618 5.40397 65.6369 4.51318 66.187 3.85303C 66.7414 3.19287 67.484 2.86279 68.415 2.86279C 69.2868 2.86279 69.9766 3.15055 70.4844 3.72607C 70.9922 4.29736 71.2461 5.05273 71.2461 5.99219L 71.2461 6.65869L 66.4536 6.65869C 66.4748 7.47542 66.68 8.09538 67.0693 8.51855C 67.4629 8.94173 68.0151 9.15332 68.7261 9.15332C 69.4751 9.15332 70.2157 8.99674 70.9478 8.68359L 70.9478 9.62305C 70.5754 9.78385 70.222 9.89811 69.8877 9.96582C 69.5576 10.0378 69.1577 10.0737 68.688 10.0737ZM 68.4023 3.74512C 67.8438 3.74512 67.3973 3.92708 67.063 4.29102C 66.7329 4.65495 66.5382 5.15853 66.479 5.80176L 70.1162 5.80176C 70.1162 5.13737 69.9681 4.62956 69.6719 4.27832C 69.3757 3.92285 68.9525 3.74512 68.4023 3.74512Z"/>
<path id="path17_fill" d="M 82.1196 2.98975L 82.1196 3.65625L 80.8311 3.80859C 80.9495 3.95671 81.0553 4.15137 81.1484 4.39258C 81.2415 4.62956 81.2881 4.89827 81.2881 5.19873C 81.2881 5.88005 81.0553 6.42383 80.5898 6.83008C 80.1243 7.23633 79.4854 7.43945 78.6729 7.43945C 78.4655 7.43945 78.2708 7.42253 78.0889 7.38867C 77.6403 7.62565 77.416 7.92399 77.416 8.28369C 77.416 8.47412 77.4943 8.61589 77.6509 8.70898C 77.8075 8.79785 78.0762 8.84229 78.457 8.84229L 79.6885 8.84229C 80.4417 8.84229 81.0194 9.00098 81.4214 9.31836C 81.8276 9.63574 82.0308 10.097 82.0308 10.7021C 82.0308 11.4723 81.7218 12.0584 81.104 12.4604C 80.4862 12.8667 79.5848 13.0698 78.3999 13.0698C 77.4901 13.0698 76.7876 12.9006 76.2925 12.562C 75.8016 12.2235 75.5562 11.7453 75.5562 11.1274C 75.5562 10.7043 75.6916 10.3382 75.9624 10.0293C 76.2332 9.72038 76.6141 9.5109 77.105 9.40088C 76.9272 9.32048 76.777 9.19564 76.6543 9.02637C 76.5358 8.8571 76.4766 8.66032 76.4766 8.43604C 76.4766 8.18213 76.5443 7.95996 76.6797 7.76953C 76.8151 7.5791 77.0288 7.39502 77.3208 7.21729C 76.9611 7.06917 76.667 6.81738 76.4385 6.46191C 76.2142 6.10645 76.1021 5.7002 76.1021 5.24316C 76.1021 4.48145 76.3306 3.89535 76.7876 3.48486C 77.2446 3.07015 77.8921 2.86279 78.73 2.86279C 79.0939 2.86279 79.4219 2.90511 79.7139 2.98975L 82.1196 2.98975ZM 76.5718 11.1147C 76.5718 11.4914 76.7305 11.777 77.0479 11.9717C 77.3652 12.1663 77.8201 12.2637 78.4126 12.2637C 79.297 12.2637 79.9508 12.1304 80.374 11.8638C 80.8014 11.6014 81.0151 11.2438 81.0151 10.791C 81.0151 10.4144 80.8988 10.152 80.666 10.0039C 80.4333 9.86003 79.9953 9.78809 79.3521 9.78809L 78.0889 9.78809C 77.6107 9.78809 77.2383 9.90234 76.9717 10.1309C 76.7051 10.3594 76.5718 10.6873 76.5718 11.1147ZM 77.1431 5.21777C 77.1431 5.70443 77.2806 6.07259 77.5557 6.32227C 77.8307 6.57194 78.2137 6.69678 78.7046 6.69678C 79.7329 6.69678 80.2471 6.19743 80.2471 5.19873C 80.2471 4.15348 79.7266 3.63086 78.6855 3.63086C 78.1904 3.63086 77.8096 3.76416 77.543 4.03076C 77.2764 4.29736 77.1431 4.69303 77.1431 5.21777Z"/>
<path id="path18_fill" d="M 86.4868 10.0737C 85.4585 10.0737 84.646 9.76058 84.0493 9.13428C 83.4569 8.50798 83.1606 7.63835 83.1606 6.52539C 83.1606 5.40397 83.4357 4.51318 83.9858 3.85303C 84.5402 3.19287 85.2829 2.86279 86.2139 2.86279C 87.0856 2.86279 87.7754 3.15055 88.2832 3.72607C 88.791 4.29736 89.0449 5.05273 89.0449 5.99219L 89.0449 6.65869L 84.2524 6.65869C 84.2736 7.47542 84.4788 8.09538 84.8682 8.51855C 85.2617 8.94173 85.814 9.15332 86.5249 9.15332C 87.2739 9.15332 88.0145 8.99674 88.7466 8.68359L 88.7466 9.62305C 88.3742 9.78385 88.0208 9.89811 87.6865 9.96582C 87.3564 10.0378 86.9565 10.0737 86.4868 10.0737ZM 86.2012 3.74512C 85.6426 3.74512 85.1961 3.92708 84.8618 4.29102C 84.5317 4.65495 84.3371 5.15853 84.2778 5.80176L 87.915 5.80176C 87.915 5.13737 87.7669 4.62956 87.4707 4.27832C 87.1745 3.92285 86.7513 3.74512 86.2012 3.74512Z"/>
<path id="path19_fill" d="M 95.3354 8.04883C 95.3354 8.69629 95.0942 9.19564 94.6118 9.54688C 94.1294 9.89811 93.4523 10.0737 92.5806 10.0737C 91.658 10.0737 90.9386 9.92773 90.4224 9.63574L 90.4224 8.6582C 90.7567 8.82747 91.1143 8.96077 91.4951 9.05811C 91.8802 9.15544 92.2505 9.2041 92.606 9.2041C 93.1561 9.2041 93.5793 9.11735 93.8755 8.94385C 94.1717 8.76611 94.3198 8.4974 94.3198 8.1377C 94.3198 7.86686 94.2013 7.63623 93.9644 7.4458C 93.7316 7.25114 93.2746 7.02262 92.5933 6.76025C 91.9458 6.51904 91.4845 6.30957 91.2095 6.13184C 90.9386 5.94987 90.7355 5.74463 90.6001 5.51611C 90.4689 5.2876 90.4033 5.01465 90.4033 4.69727C 90.4033 4.13021 90.634 3.68376 91.0952 3.35791C 91.5565 3.02783 92.1891 2.86279 92.9932 2.86279C 93.7422 2.86279 94.4743 3.01514 95.1895 3.31982L 94.8149 4.17676C 94.1167 3.889 93.484 3.74512 92.917 3.74512C 92.4176 3.74512 92.041 3.8234 91.7871 3.97998C 91.5332 4.13656 91.4062 4.35238 91.4062 4.62744C 91.4062 4.81364 91.4528 4.97233 91.5459 5.10352C 91.6432 5.2347 91.7977 5.35954 92.0093 5.47803C 92.2209 5.59652 92.6271 5.7679 93.228 5.99219C 94.0532 6.29264 94.6097 6.59521 94.8975 6.8999C 95.1895 7.20459 95.3354 7.58757 95.3354 8.04883Z"/>
<path id="path20_fill" d="M 99.3027 9.2041C 99.4889 9.2041 99.6688 9.19141 99.8423 9.16602C 100.016 9.13639 100.153 9.10677 100.255 9.07715L 100.255 9.8833C 100.141 9.93831 99.9714 9.98275 99.7471 10.0166C 99.527 10.0547 99.3281 10.0737 99.1504 10.0737C 97.8047 10.0737 97.1318 9.36491 97.1318 7.94727L 97.1318 3.80859L 96.1353 3.80859L 96.1353 3.30078L 97.1318 2.86279L 97.5762 1.37744L 98.1855 1.37744L 98.1855 2.98975L 100.204 2.98975L 100.204 3.80859L 98.1855 3.80859L 98.1855 7.90283C 98.1855 8.32178 98.285 8.64339 98.4839 8.86768C 98.6828 9.09196 98.9557 9.2041 99.3027 9.2041Z"/>
<path id="path21_fill" d="M 105.93 9.94678L 105.72 8.95654L 105.669 8.95654C 105.322 9.39242 104.975 9.68864 104.628 9.84521C 104.286 9.99756 103.856 10.0737 103.34 10.0737C 102.65 10.0737 102.108 9.896 101.715 9.54053C 101.326 9.18506 101.131 8.67936 101.131 8.02344C 101.131 6.61849 102.254 5.88216 104.501 5.81445L 105.682 5.77637L 105.682 5.34473C 105.682 4.79883 105.564 4.39681 105.327 4.13867C 105.094 3.8763 104.719 3.74512 104.203 3.74512C 103.623 3.74512 102.967 3.92285 102.235 4.27832L 101.912 3.47217C 102.254 3.28597 102.629 3.13997 103.035 3.03418C 103.446 2.92839 103.856 2.87549 104.267 2.87549C 105.096 2.87549 105.71 3.05957 106.107 3.42773C 106.509 3.7959 106.71 4.38623 106.71 5.19873L 106.71 9.94678L 105.93 9.94678ZM 103.549 9.2041C 104.205 9.2041 104.719 9.02425 105.092 8.66455C 105.468 8.30485 105.657 7.80127 105.657 7.15381L 105.657 6.52539L 104.603 6.56982C 103.765 6.59945 103.16 6.73063 102.788 6.96338C 102.419 7.19189 102.235 7.54948 102.235 8.03613C 102.235 8.41699 102.35 8.70687 102.578 8.90576C 102.811 9.10465 103.135 9.2041 103.549 9.2041ZM 105.111 2.05664C 104.929 2.05664 104.751 2.01855 104.578 1.94238C 104.404 1.86198 104.233 1.77523 104.063 1.68213C 103.898 1.5848 103.738 1.49805 103.581 1.42188C 103.429 1.34147 103.281 1.30127 103.137 1.30127C 102.925 1.30127 102.764 1.36475 102.654 1.4917C 102.549 1.61865 102.466 1.8112 102.407 2.06934L 101.785 2.06934C 101.84 1.55729 101.988 1.15739 102.229 0.869629C 102.474 0.577637 102.79 0.431641 103.175 0.431641C 103.369 0.431641 103.558 0.471842 103.74 0.552246C 103.922 0.628418 104.095 0.715169 104.26 0.8125C 104.425 0.905599 104.584 0.99235 104.736 1.07275C 104.889 1.14893 105.033 1.18701 105.168 1.18701C 105.375 1.18701 105.53 1.12565 105.631 1.00293C 105.733 0.875977 105.815 0.681315 105.879 0.418945L 106.507 0.418945C 106.452 0.93099 106.304 1.33301 106.063 1.625C 105.826 1.91276 105.509 2.05664 105.111 2.05664Z"/>
<path id="path22_fill" d="M 114.893 6.46191C 114.893 7.59603 114.607 8.48258 114.036 9.12158C 113.464 9.75635 112.675 10.0737 111.668 10.0737C 111.046 10.0737 110.494 9.92773 110.011 9.63574C 109.529 9.34375 109.156 8.9248 108.894 8.37891C 108.632 7.83301 108.5 7.19401 108.5 6.46191C 108.5 5.3278 108.784 4.44548 109.351 3.81494C 109.918 3.18018 110.705 2.86279 111.712 2.86279C 112.686 2.86279 113.458 3.18652 114.029 3.83398C 114.605 4.48145 114.893 5.35742 114.893 6.46191ZM 109.592 6.46191C 109.592 7.35059 109.77 8.02767 110.125 8.49316C 110.481 8.95866 111.004 9.19141 111.693 9.19141C 112.383 9.19141 112.906 8.96077 113.261 8.49951C 113.621 8.03402 113.801 7.35482 113.801 6.46191C 113.801 5.57747 113.621 4.90674 113.261 4.44971C 112.906 3.98844 112.379 3.75781 111.681 3.75781C 110.991 3.75781 110.47 3.98421 110.119 4.43701C 109.768 4.88981 109.592 5.56478 109.592 6.46191Z"/>
<path id="path23_fill" d="M 5.17969 27.0137L 5.12256 27.0137C 4.6359 27.7204 3.90804 28.0737 2.93896 28.0737C 2.02913 28.0737 1.32031 27.7627 0.8125 27.1406C 0.308919 26.5186 0.0571289 25.6341 0.0571289 24.4873C 0.0571289 23.3405 0.311035 22.4497 0.818848 21.8149C 1.32666 21.1802 2.03337 20.8628 2.93896 20.8628C 3.88265 20.8628 4.60628 21.2056 5.10986 21.8911L 5.19238 21.8911L 5.14795 21.3896L 5.12256 20.9009L 5.12256 18.0698L 6.17627 18.0698L 6.17627 27.9468L 5.31934 27.9468L 5.17969 27.0137ZM 3.07227 27.1914C 3.79167 27.1914 4.31217 26.9967 4.63379 26.6074C 4.95964 26.2139 5.12256 25.5812 5.12256 24.7095L 5.12256 24.4873C 5.12256 23.5013 4.95752 22.7988 4.62744 22.3799C 4.3016 21.9567 3.77897 21.7451 3.05957 21.7451C 2.44173 21.7451 1.96777 21.9863 1.6377 22.4688C 1.31185 22.9469 1.14893 23.624 1.14893 24.5C 1.14893 25.3887 1.31185 26.0594 1.6377 26.5122C 1.96354 26.965 2.44173 27.1914 3.07227 27.1914Z"/>
<path id="path24_fill" d="M 11.356 28.0737C 10.3276 28.0737 9.51514 27.7606 8.91846 27.1343C 8.32601 26.508 8.02979 25.6383 8.02979 24.5254C 8.02979 23.404 8.30485 22.5132 8.85498 21.853C 9.40934 21.1929 10.152 20.8628 11.083 20.8628C 11.9548 20.8628 12.6445 21.1506 13.1523 21.7261C 13.6602 22.2974 13.9141 23.0527 13.9141 23.9922L 13.9141 24.6587L 9.12158 24.6587C 9.14274 25.4754 9.34798 26.0954 9.7373 26.5186C 10.1309 26.9417 10.6831 27.1533 11.394 27.1533C 12.1431 27.1533 12.8836 26.9967 13.6157 26.6836L 13.6157 27.623C 13.2433 27.7839 12.89 27.8981 12.5557 27.9658C 12.2256 28.0378 11.8257 28.0737 11.356 28.0737ZM 11.0703 21.7451C 10.5117 21.7451 10.0653 21.9271 9.73096 22.291C 9.40088 22.6549 9.20622 23.1585 9.14697 23.8018L 12.7842 23.8018C 12.7842 23.1374 12.6361 22.6296 12.3398 22.2783C 12.0436 21.9229 11.6204 21.7451 11.0703 21.7451Z"/>
<path id="path25_fill" d="M 22.2676 20.8628C 22.5765 20.8628 22.8537 20.8882 23.0991 20.939L 22.9531 21.9165C 22.6654 21.853 22.4115 21.8213 22.1914 21.8213C 21.6286 21.8213 21.1462 22.0498 20.7441 22.5068C 20.3464 22.9639 20.1475 23.533 20.1475 24.2144L 20.1475 27.9468L 19.0938 27.9468L 19.0938 20.9897L 19.9634 20.9897L 20.084 22.2783L 20.1348 22.2783C 20.3929 21.8255 20.7039 21.4764 21.0679 21.231C 21.4318 20.9855 21.8317 20.8628 22.2676 20.8628Z"/>
<path id="path26_fill" d="M 27.3394 28.0737C 26.311 28.0737 25.4985 27.7606 24.9019 27.1343C 24.3094 26.508 24.0132 25.6383 24.0132 24.5254C 24.0132 23.404 24.2882 22.5132 24.8384 21.853C 25.3927 21.1929 26.1354 20.8628 27.0664 20.8628C 27.9382 20.8628 28.6279 21.1506 29.1357 21.7261C 29.6436 22.2974 29.8975 23.0527 29.8975 23.9922L 29.8975 24.6587L 25.105 24.6587C 25.1261 25.4754 25.3314 26.0954 25.7207 26.5186C 26.1143 26.9417 26.6665 27.1533 27.3774 27.1533C 28.1265 27.1533 28.867 26.9967 29.5991 26.6836L 29.5991 27.623C 29.2267 27.7839 28.8734 27.8981 28.5391 27.9658C 28.209 28.0378 27.8091 28.0737 27.3394 28.0737ZM 27.0537 21.7451C 26.4951 21.7451 26.0487 21.9271 25.7144 22.291C 25.3843 22.6549 25.1896 23.1585 25.1304 23.8018L 28.7676 23.8018C 28.7676 23.1374 28.6195 22.6296 28.3232 22.2783C 28.027 21.9229 27.6038 21.7451 27.0537 21.7451Z"/>
<path id="path27_fill" d="M 33.2236 27.9468L 30.583 20.9897L 31.7129 20.9897L 33.2109 25.1157C 33.5495 26.0806 33.7484 26.7069 33.8076 26.9946L 33.8584 26.9946C 33.9049 26.7703 34.0509 26.307 34.2964 25.6045C 34.5461 24.8978 35.1025 23.3595 35.9658 20.9897L 37.0957 20.9897L 34.4551 27.9468L 33.2236 27.9468Z"/>
<path id="path28_fill" d="M 41.1519 28.0737C 40.1235 28.0737 39.311 27.7606 38.7144 27.1343C 38.1219 26.508 37.8257 25.6383 37.8257 24.5254C 37.8257 23.404 38.1007 22.5132 38.6509 21.853C 39.2052 21.1929 39.9479 20.8628 40.8789 20.8628C 41.7507 20.8628 42.4404 21.1506 42.9482 21.7261C 43.4561 22.2974 43.71 23.0527 43.71 23.9922L 43.71 24.6587L 38.9175 24.6587C 38.9386 25.4754 39.1439 26.0954 39.5332 26.5186C 39.9268 26.9417 40.479 27.1533 41.1899 27.1533C 41.939 27.1533 42.6795 26.9967 43.4116 26.6836L 43.4116 27.623C 43.0392 27.7839 42.6859 27.8981 42.3516 27.9658C 42.0215 28.0378 41.6216 28.0737 41.1519 28.0737ZM 40.8662 21.7451C 40.3076 21.7451 39.8612 21.9271 39.5269 22.291C 39.1968 22.6549 39.0021 23.1585 38.9429 23.8018L 42.5801 23.8018C 42.5801 23.1374 42.432 22.6296 42.1357 22.2783C 41.8395 21.9229 41.4163 21.7451 40.8662 21.7451Z"/>
<path id="path29_fill" d="M 50.2734 27.9468L 50.2734 23.4463C 50.2734 22.8792 50.1444 22.4561 49.8862 22.1768C 49.6281 21.8975 49.224 21.7578 48.6738 21.7578C 47.946 21.7578 47.4128 21.9546 47.0742 22.3481C 46.7357 22.7417 46.5664 23.3913 46.5664 24.2969L 46.5664 27.9468L 45.5127 27.9468L 45.5127 20.9897L 46.3696 20.9897L 46.541 21.9419L 46.5918 21.9419C 46.8076 21.5991 47.1102 21.3346 47.4995 21.1484C 47.8888 20.958 48.3226 20.8628 48.8008 20.8628C 49.6387 20.8628 50.2692 21.0659 50.6924 21.4722C 51.1156 21.8742 51.3271 22.5195 51.3271 23.4082L 51.3271 27.9468L 50.2734 27.9468Z"/>
<path id="path30_fill" d="M 58.2334 27.0137L 58.1763 27.0137C 57.6896 27.7204 56.9618 28.0737 55.9927 28.0737C 55.0828 28.0737 54.374 27.7627 53.8662 27.1406C 53.3626 26.5186 53.1108 25.6341 53.1108 24.4873C 53.1108 23.3405 53.3647 22.4497 53.8726 21.8149C 54.3804 21.1802 55.0871 20.8628 55.9927 20.8628C 56.9364 20.8628 57.66 21.2056 58.1636 21.8911L 58.2461 21.8911L 58.2017 21.3896L 58.1763 20.9009L 58.1763 18.0698L 59.23 18.0698L 59.23 27.9468L 58.373 27.9468L 58.2334 27.0137ZM 56.126 27.1914C 56.8454 27.1914 57.3659 26.9967 57.6875 26.6074C 58.0133 26.2139 58.1763 25.5812 58.1763 24.7095L 58.1763 24.4873C 58.1763 23.5013 58.0112 22.7988 57.6812 22.3799C 57.3553 21.9567 56.8327 21.7451 56.1133 21.7451C 55.4954 21.7451 55.0215 21.9863 54.6914 22.4688C 54.3656 22.9469 54.2026 23.624 54.2026 24.5C 54.2026 25.3887 54.3656 26.0594 54.6914 26.5122C 55.0173 26.965 55.4954 27.1914 56.126 27.1914Z"/>
<path id="path31_fill" d="M 65.749 27.9468L 65.5396 26.9565L 65.4888 26.9565C 65.1418 27.3924 64.7948 27.6886 64.4478 27.8452C 64.105 27.9976 63.6755 28.0737 63.1592 28.0737C 62.4694 28.0737 61.9277 27.896 61.5342 27.5405C 61.1449 27.1851 60.9502 26.6794 60.9502 26.0234C 60.9502 24.6185 62.0737 23.8822 64.3208 23.8145L 65.5015 23.7764L 65.5015 23.3447C 65.5015 22.7988 65.383 22.3968 65.146 22.1387C 64.9132 21.8763 64.5387 21.7451 64.0225 21.7451C 63.4427 21.7451 62.7868 21.9229 62.0547 22.2783L 61.731 21.4722C 62.0737 21.286 62.4482 21.14 62.8545 21.0342C 63.265 20.9284 63.6755 20.8755 64.0859 20.8755C 64.9154 20.8755 65.529 21.0596 65.9268 21.4277C 66.3288 21.7959 66.5298 22.3862 66.5298 23.1987L 66.5298 27.9468L 65.749 27.9468ZM 63.3687 27.2041C 64.0246 27.2041 64.5387 27.0243 64.9111 26.6646C 65.2878 26.3049 65.4761 25.8013 65.4761 25.1538L 65.4761 24.5254L 64.4224 24.5698C 63.5845 24.5994 62.9793 24.7306 62.6069 24.9634C 62.2388 25.1919 62.0547 25.5495 62.0547 26.0361C 62.0547 26.417 62.1689 26.7069 62.3975 26.9058C 62.6302 27.1047 62.9539 27.2041 63.3687 27.2041Z"/>
<path id="path32_fill" d="M 73.1948 26.0488C 73.1948 26.6963 72.9536 27.1956 72.4712 27.5469C 71.9888 27.8981 71.3117 28.0737 70.4399 28.0737C 69.5174 28.0737 68.798 27.9277 68.2817 27.6357L 68.2817 26.6582C 68.616 26.8275 68.9736 26.9608 69.3545 27.0581C 69.7396 27.1554 70.1099 27.2041 70.4653 27.2041C 71.0155 27.2041 71.4386 27.1174 71.7349 26.9438C 72.0311 26.7661 72.1792 26.4974 72.1792 26.1377C 72.1792 25.8669 72.0607 25.6362 71.8237 25.4458C 71.591 25.2511 71.134 25.0226 70.4526 24.7603C 69.8052 24.519 69.3439 24.3096 69.0688 24.1318C 68.798 23.9499 68.5949 23.7446 68.4595 23.5161C 68.3283 23.2876 68.2627 23.0146 68.2627 22.6973C 68.2627 22.1302 68.4933 21.6838 68.9546 21.3579C 69.4159 21.0278 70.0485 20.8628 70.8525 20.8628C 71.6016 20.8628 72.3337 21.0151 73.0488 21.3198L 72.6743 22.1768C 71.9761 21.889 71.3434 21.7451 70.7764 21.7451C 70.277 21.7451 69.9004 21.8234 69.6465 21.98C 69.3926 22.1366 69.2656 22.3524 69.2656 22.6274C 69.2656 22.8136 69.3122 22.9723 69.4053 23.1035C 69.5026 23.2347 69.6571 23.3595 69.8687 23.478C 70.0802 23.5965 70.4865 23.7679 71.0874 23.9922C 71.9126 24.2926 72.4691 24.5952 72.7568 24.8999C 73.0488 25.2046 73.1948 25.5876 73.1948 26.0488Z"/>
<path id="path33_fill" d="M 83.751 18.6665L 84.9126 18.6665L 81.5674 27.9468L 80.501 27.9468L 77.1748 18.6665L 78.3174 18.6665L 80.4502 24.6714C 80.6956 25.3612 80.8903 26.0319 81.0342 26.6836C 81.1865 25.998 81.3854 25.3146 81.6309 24.6333L 83.751 18.6665Z"/>
<path id="path34_fill" d="M 87.0898 27.9468L 86.0361 27.9468L 86.0361 20.9897L 87.0898 20.9897L 87.0898 27.9468ZM 85.9473 19.1045C 85.9473 18.8633 86.0065 18.6877 86.125 18.5776C 86.2435 18.4634 86.3916 18.4062 86.5693 18.4062C 86.7386 18.4062 86.8846 18.4634 87.0073 18.5776C 87.13 18.6919 87.1914 18.8675 87.1914 19.1045C 87.1914 19.3415 87.13 19.5192 87.0073 19.6377C 86.8846 19.752 86.7386 19.8091 86.5693 19.8091C 86.3916 19.8091 86.2435 19.752 86.125 19.6377C 86.0065 19.5192 85.9473 19.3415 85.9473 19.1045Z"/>
<path id="path35_fill" d="M 90.8477 27.9468L 88.207 20.9897L 89.3369 20.9897L 90.835 25.1157C 91.1735 26.0806 91.3724 26.7069 91.4316 26.9946L 91.4824 26.9946C 91.529 26.7703 91.675 26.307 91.9204 25.6045C 92.1701 24.8978 92.7266 23.3595 93.5898 20.9897L 94.7197 20.9897L 92.0791 27.9468L 90.8477 27.9468Z"/>
<path id="path36_fill" d="M 101.842 24.4619C 101.842 25.596 101.556 26.4826 100.985 27.1216C 100.414 27.7563 99.6243 28.0737 98.6172 28.0737C 97.9951 28.0737 97.4429 27.9277 96.9604 27.6357C 96.478 27.3438 96.1056 26.9248 95.8433 26.3789C 95.5809 25.833 95.4497 25.194 95.4497 24.4619C 95.4497 23.3278 95.7332 22.4455 96.3003 21.8149C 96.8674 21.1802 97.6545 20.8628 98.6616 20.8628C 99.6349 20.8628 100.407 21.1865 100.979 21.834C 101.554 22.4814 101.842 23.3574 101.842 24.4619ZM 96.5415 24.4619C 96.5415 25.3506 96.7192 26.0277 97.0747 26.4932C 97.4302 26.9587 97.9528 27.1914 98.6426 27.1914C 99.3324 27.1914 99.855 26.9608 100.21 26.4995C 100.57 26.034 100.75 25.3548 100.75 24.4619C 100.75 23.5775 100.57 22.9067 100.21 22.4497C 99.855 21.9884 99.3281 21.7578 98.6299 21.7578C 97.9401 21.7578 97.4196 21.9842 97.0684 22.437C 96.7171 22.8898 96.5415 23.5648 96.5415 24.4619Z"/>
</defs>
</svg>
