<svg width="620" height="556" xmlns="http://www.w3.org/2000/svg" xmlns:xlink="http://www.w3.org/1999/xlink"><g transform="matrix(4 0 0 4 -30600 2900)" fill="#EB3C3C"><use xlink:href="#path0_fill" transform="translate(7722.96 -679.704)"/><use xlink:href="#path1_fill" transform="translate(7721.45 -625.244)"/><use xlink:href="#path2_fill" transform="translate(7650 -725)"/></g><defs><path id="path0_fill" d="M9.08 0H0v45.383h9.08V0z"/><path id="path1_fill" d="M6.054 0A6.06 6.06 0 0 0 0 6.051a6.06 6.06 0 0 0 6.054 6.051 6.06 6.06 0 0 0 6.054-6.05A6.06 6.06 0 0 0 6.054 0z"/><path id="path2_fill" d="M152.529 111.674L93.284 9.109C89.99 3.405 84.09 0 77.5 0S65.01 3.405 61.716 9.109L2.47 111.674c-3.295 5.704-3.295 12.514 0 18.217C5.766 135.595 11.666 139 18.255 139h118.489c6.589 0 12.49-3.405 15.785-9.108 3.295-5.704 3.295-12.514 0-18.218zm-7.864 13.68c-1.654 2.861-4.614 4.57-7.921 4.57H18.255c-3.306 0-6.267-1.709-7.92-4.57-1.653-2.862-1.653-6.279 0-9.141L69.58 13.647c1.653-2.862 4.614-4.57 7.92-4.57s6.267 1.708 7.92 4.57l59.245 102.566c1.653 2.862 1.653 6.279 0 9.141z"/></defs></svg>