<svg width="70" height="85" xmlns="http://www.w3.org/2000/svg" xmlns:xlink="http://www.w3.org/1999/xlink"><use xlink:href="#path0_fill" fill="#609"/><use xlink:href="#path1_fill" transform="translate(28.3 44.07)" fill="#609"/><defs><path id="path0_fill" d="M59.815 31.66v-8.836C59.815 10.24 48.516 0 34.63 0 20.743 0 9.444 10.24 9.444 22.824v8.835C4.091 32.582 0 37.247 0 42.862v30.76C0 79.896 5.105 85 11.379 85H57.88c6.274 0 11.38-5.105 11.38-11.379v-30.76c0-5.614-4.092-10.28-9.445-11.202zm-47.222-8.836c0-10.85 9.885-19.676 22.037-19.676 12.151 0 22.037 8.826 22.037 19.676v8.657H12.593v-8.657zM66.11 73.621c0 4.538-3.693 8.23-8.23 8.23H11.378c-4.538 0-8.23-3.692-8.23-8.23v-30.76c0-4.539 3.692-8.231 8.23-8.231H57.88c4.538 0 8.231 3.692 8.231 8.23v30.761z"/><path id="path1_fill" d="M6.296 0A6.303 6.303 0 0 0 0 6.296v9.445a6.303 6.303 0 0 0 6.296 6.296 6.303 6.303 0 0 0 6.297-6.296V6.296A6.303 6.303 0 0 0 6.296 0zm3.148 15.74a3.151 3.151 0 0 1-3.148 3.149 3.151 3.151 0 0 1-3.148-3.148V6.296a3.151 3.151 0 0 1 3.148-3.148 3.151 3.151 0 0 1 3.148 3.148v9.445z"/></defs></svg>