<svg width="65" height="85" xmlns="http://www.w3.org/2000/svg" xmlns:xlink="http://www.w3.org/1999/xlink"><use xlink:href="#path0_fill" transform="translate(36.1 70.83)" fill="#609"/><use xlink:href="#path1_fill" transform="translate(41.8 41.08)" fill="#609"/><use xlink:href="#path2_fill" transform="translate(11.9 11.33)" fill="#609"/><use xlink:href="#path3_fill" fill="#609"/><defs><path id="path0_fill" d="M4.98 0C2.232 0 0 2.224 0 4.958s2.233 4.959 4.98 4.959c2.745 0 4.978-2.225 4.978-4.959C9.958 2.224 7.723 0 4.98 0zm0 7.083a2.132 2.132 0 0 1-2.135-2.125c0-1.171.958-2.125 2.134-2.125 1.177 0 2.134.954 2.134 2.125a2.132 2.132 0 0 1-2.134 2.125z"/><path id="path1_fill" d="M5.69 11.333c3.139 0 5.69-2.541 5.69-5.666C11.38 2.54 8.83 0 5.69 0 2.552 0 0 2.541 0 5.667c0 3.125 2.55 5.666 5.69 5.666zm0-8.5a2.843 2.843 0 0 1 2.846 2.834A2.842 2.842 0 0 1 5.69 8.5a2.842 2.842 0 0 1-2.845-2.833A2.842 2.842 0 0 1 5.69 2.833z"/><path id="path2_fill" d="M1.423 5.667c.364 0 .728-.139 1.006-.415l2.845-2.833a1.41 1.41 0 0 0 0-2.004 1.425 1.425 0 0 0-2.012 0L.417 3.25a1.41 1.41 0 0 0 0 2.003c.278.276.642.415 1.006.415z"/><path id="path3_fill" d="M64.518 42.142a4.626 4.626 0 0 0-1.373-3.3l-.792-.788a6.352 6.352 0 0 0 2.164-4.763c0-3.515-2.873-6.375-6.402-6.375a6.31 6.31 0 0 0-.768.057c.031-.254.057-.506.057-.765 0-3.515-2.873-6.375-6.402-6.375a6.31 6.31 0 0 0-.768.056c.031-.253.057-.505.057-.765 0-3.514-2.873-6.374-6.402-6.374a6.31 6.31 0 0 0-.768.056 6.26 6.26 0 0 0 .057-.765c0-3.515-2.873-6.375-6.402-6.375-1.86 0-3.588.812-4.783 2.155l-1.13-1.125-5.353-5.33a4.703 4.703 0 0 0-6.626 0L1.369 18.806a4.662 4.662 0 0 0 0 6.6l5.353 5.331 6.985 6.956c-1.929 1.1-3.248 3.146-3.248 5.513a6.365 6.365 0 0 0 2.87 5.31c.086.115.188.228.323.343l15.301 15.18v2.544h-2.845V85h36.987V66.584H60.25V62.29a11.906 11.906 0 0 0 4.268-9.167c0-2.465-.772-4.86-2.185-6.874l.812-.809a4.626 4.626 0 0 0 1.373-3.299zm-2.845-8.851a3.532 3.532 0 0 1-1.333 2.758l-4.995-4.974a3.56 3.56 0 0 1 2.77-1.327c1.962.001 3.558 1.59 3.558 3.543zm-7.113-7.083a3.532 3.532 0 0 1-1.333 2.758l-4.995-4.974a3.56 3.56 0 0 1 2.77-1.327c1.962.001 3.558 1.59 3.558 3.543zm-7.113-7.084a3.532 3.532 0 0 1-1.333 2.759l-4.995-4.974a3.56 3.56 0 0 1 2.77-1.328c1.962.002 3.558 1.59 3.558 3.543zM36.777 8.5a3.552 3.552 0 0 1 3.557 3.541A3.532 3.532 0 0 1 39 14.8l-4.995-4.973A3.564 3.564 0 0 1 36.777 8.5zM3.38 23.405a1.833 1.833 0 0 1 0-2.593L20.895 3.37c.178-.177.386-.31.607-.4.1-.04.212-.04.317-.062.253-.054.503-.054.757 0 .105.023.217.021.317.062.22.09.427.223.606.4l3.341 3.328L6.723 26.732 3.38 23.406zM28.852 8.701l1.676 1.668 7.113 7.084.815.812 6.298 6.271.815.812 6.298 6.271.815.812 7.113 7.083 1.337 1.332a1.829 1.829 0 0 1 0 2.592l-.621.62-16.892 16.824a1.849 1.849 0 0 1-2.605 0l-11.345-11.3h1.417c3.529 0 6.401-2.86 6.401-6.375 0-3.514-2.872-6.374-6.401-6.374H16.864l-8.132-8.098 20.12-20.034zm-12.76 31.053l.591-.067c.058-.008.117-.021.177-.021h14.226a3.552 3.552 0 0 1 3.556 3.541 3.552 3.552 0 0 1-3.556 3.542H16.86a3.552 3.552 0 0 1-3.557-3.542 3.55 3.55 0 0 1 2.79-3.453zm12.861 42.411v-12.75H40.94c4.372 0 7.93 3.543 7.93 7.897v4.853H28.953zm31.297 0h-8.535v-4.853c0-3.125-1.358-5.933-3.506-7.897H60.25v12.75zm.036-33.875a9.135 9.135 0 0 1 1.387 4.834c0 2.911-1.349 5.59-3.702 7.354l-.566.425v5.68H31.797v-3.851l-.502-.424a4.582 4.582 0 0 0-.256-.198L18.41 49.58h7.234l13.357 13.303a4.685 4.685 0 0 0 3.313 1.364c1.2 0 2.401-.454 3.315-1.364L60.286 48.29z"/></defs></svg>