<svg width="104" height="120" xmlns="http://www.w3.org/2000/svg" xmlns:xlink="http://www.w3.org/1999/xlink"><use xlink:href="#path0_fill" transform="matrix(4 0 0 4 21.44 0)" fill="#FFF"/><use xlink:href="#path1_fill" transform="matrix(4 0 0 4 0 111.6)" fill="#FFF"/><defs><path id="path0_fill" d="M7.643 0C7.058 0 6.59.472 6.59 1.054v19.132l-4.782-4.754a1.064 1.064 0 0 0-1.497 0 1.05 1.05 0 0 0 0 1.489l6.587 6.548a1.062 1.062 0 0 0 1.492 0l6.588-6.555a1.05 1.05 0 0 0 0-1.488 1.065 1.065 0 0 0-1.498 0L8.697 20.18V1.054A1.048 1.048 0 0 0 7.643 0z"/><path id="path1_fill" d="M26 1.054C26 .472 25.526 0 24.94 0H1.06C.475 0 0 .472 0 1.054A1.05 1.05 0 0 0 1.06 2.1h23.886A1.042 1.042 0 0 0 26 1.054z"/></defs></svg>