<svg width="31" height="30" xmlns="http://www.w3.org/2000/svg" xmlns:xlink="http://www.w3.org/1999/xlink"><use xlink:href="#path0_fill" transform="translate(3.2 4.47)" fill="#FFF"/><use xlink:href="#path1_fill" transform="translate(3.27 9.11)" fill="#FFF"/><use xlink:href="#path2_fill" transform="translate(3.27 13.68)" fill="#FFF"/><use xlink:href="#path3_fill" transform="translate(3.21 18.24)" fill="#FFF"/><use xlink:href="#path4_fill" transform="translate(17.66 4.47)" fill="#FFF"/><use xlink:href="#path5_fill" transform="translate(17.66 9.04)" fill="#FFF"/><use xlink:href="#path6_fill" transform="translate(17.66 13.61)" fill="#FFF"/><use xlink:href="#path7_fill" fill="#FFF"/><defs><path id="path0_fill" d="M.389 1.966c3.08-.84 5.525-.84 8.605 0l.32-1.29C5.976-.225 3.279-.225 0 .676l.389 1.29z"/><path id="path1_fill" d="M0 .676l.321 1.222c3.08-.84 5.525-.84 8.605 0L9.309.676C5.975-.225 3.278-.225 0 .676z"/><path id="path2_fill" d="M0 .676l.321 1.222c3.08-.84 5.525-.84 8.605 0L9.309.676C5.975-.225 3.278-.225 0 .676z"/><path id="path3_fill" d="M0 .676l.383 1.222c3.08-.84 5.524-.84 8.605 0l.32-1.222C5.976-.225 3.279-.225 0 .676z"/><path id="path4_fill" d="M0 .676l.383 1.29c3.08-.84 5.524-.84 8.605 0l.32-1.29C5.97-.225 3.273-.225 0 .676z"/><path id="path5_fill" d="M0 .676l.321 1.29c3.148-.84 5.525-.84 8.667 0l.32-1.29C5.97-.225 3.273-.225 0 .676z"/><path id="path6_fill" d="M0 .676l.383 1.29c3.08-.84 5.524-.84 8.605 0l.32-1.29C5.97-.225 3.273-.225 0 .676z"/><path id="path7_fill" d="M29.796 1.543C26.778.451 24.531 0 22.346 0c-2.13 0-4.321.426-7.223 1.463C12.216.426 10.026 0 7.901 0 5.716 0 3.47.45.451 1.543a.613.613 0 0 0-.451.58v22.908c0 .611.642.642.833.58 2.827-1.03 4.945-1.481 7-1.481 2.056 0 4.111.45 7 1.481.198.05.346.031.457-.012.71-.253 1.957-.66 2.778-.914a4.812 4.812 0 0 0 6.988 1.309l4 4.006.907-.907-3.994-4.007c.124-.16.235-.32.333-.493.97.29 2.247.716 3.112 1.018.19.062.833.062.833-.58V2.123a.613.613 0 0 0-.45-.58zM14.451 24.13c-2.636-.902-4.624-1.29-6.618-1.29-1.993 0-4.043.388-6.617 1.29V2.574c2.636-.97 4.63-1.352 6.617-1.352 1.988 0 3.982.39 6.618 1.352V24.13zm5.21.512a3.55 3.55 0 0 1 0-5.006 3.524 3.524 0 0 1 4.993 0 3.55 3.55 0 0 1 0 5.006 3.524 3.524 0 0 1-4.994 0zm9.302-.512c-.537-.18-1.488-.47-2.173-.68a4.83 4.83 0 0 0-1.228-4.728 4.81 4.81 0 0 0-6.809 0 4.823 4.823 0 0 0-1.204 4.815c-.537.173-1.333.426-1.876.599V2.593c2.716-1.056 4.827-1.377 6.74-1.377 1.927 0 3.92.389 6.55 1.352V24.13z"/></defs></svg>