<svg width="2560" height="948" xmlns="http://www.w3.org/2000/svg" xmlns:xlink="http://www.w3.org/1999/xlink"><use xlink:href="#path0_fill" transform="scale(4)" fill="#609"/><use xlink:href="#path1_fill" transform="matrix(4 0 0 4 872 152)" fill="#FFF"/><use xlink:href="#path2_fill" transform="matrix(4 0 0 4 942 208.16)" fill="#FFF"/><use xlink:href="#path3_fill" transform="matrix(4 0 0 4 998.4 208.16)" fill="#FFF"/><use xlink:href="#path4_fill" transform="matrix(4 0 0 4 1054.4 208.16)" fill="#FFF"/><use xlink:href="#path5_fill" transform="matrix(4 0 0 4 1054.4 404.68)" fill="#FFF"/><use xlink:href="#path6_fill" transform="matrix(4 0 0 4 1377.2 404.68)" fill="#FFF"/><use xlink:href="#path7_fill" transform="matrix(4 0 0 4 1208.8 390.64)" fill="#FFF"/><use xlink:href="#path8_fill" transform="matrix(4 0 0 4 752 492)" fill="#609"/><g transform="matrix(-4 0 0 4 1072 520)" fill="#FFF"><use xlink:href="#path9_fill"/><use xlink:href="#path10_fill"/></g><defs><path id="path0_fill" d="M0 10C0 4.477 4.477 0 10 0h620c5.523 0 10 4.477 10 10v227H0V10z"/><path id="path1_fill" d="M185.786 0H17.328C7.774 0 0 7.774 0 17.328v126.344C0 153.227 7.774 161 17.328 161h168.458c9.555 0 17.329-7.773 17.329-17.328V17.328C203.115 7.774 195.341 0 185.786 0zm10.748 143.672c0 5.926-4.821 10.748-10.748 10.748H17.328c-5.926 0-10.748-4.822-10.748-10.748V34.657h189.954v109.015zm0-115.596H6.58V17.328c0-5.926 4.822-10.748 10.748-10.748h168.458c5.927 0 10.748 4.822 10.748 10.748v10.748z"/><path id="path2_fill" d="M6.8 0H3.29a3.29 3.29 0 0 0 0 6.58H6.8A3.29 3.29 0 0 0 6.8 0z"/><path id="path3_fill" d="M6.8 0H3.29a3.29 3.29 0 0 0 0 6.58H6.8A3.29 3.29 0 0 0 6.8 0z"/><path id="path4_fill" d="M6.8 0H3.29a3.29 3.29 0 0 0 0 6.58H6.8A3.29 3.29 0 0 0 6.8 0z"/><path id="path5_fill" d="M7.662 31.367l22.672-25.91a3.29 3.29 0 0 0-4.953-4.333L.814 29.2a3.29 3.29 0 0 0 0 4.333L25.381 61.61a3.284 3.284 0 0 0 2.477 1.123 3.29 3.29 0 0 0 2.475-5.456l-22.67-25.91z"/><path id="path6_fill" d="M30.334 29.199L5.767 1.124A3.29 3.29 0 0 0 .814 5.456l22.671 25.91-22.67 25.91a3.29 3.29 0 1 0 4.952 4.333l24.567-28.076a3.29 3.29 0 0 0 0-4.334z"/><path id="path7_fill" d="M32.644.259a3.29 3.29 0 0 0-4.31 1.755L.26 68.695a3.29 3.29 0 0 0 6.064 2.554L34.4 4.568a3.29 3.29 0 0 0-1.755-4.31z"/><path id="path8_fill" d="M86 43c0 23.748-19.252 43-43 43S0 66.748 0 43 19.252 0 43 0s43 19.252 43 43z"/><path id="path9_fill" fill-rule="evenodd" d="M35.758 60.224c13.512 0 24.466-10.954 24.466-24.466S49.27 11.292 35.758 11.292 11.292 22.246 11.292 35.758s10.954 24.466 24.466 24.466zm0 3.136c15.244 0 27.602-12.358 27.602-27.602 0-15.245-12.358-27.603-27.602-27.603-15.245 0-27.603 12.358-27.603 27.603 0 15.244 12.358 27.602 27.603 27.602z"/><path id="path10_fill" d="M98.118 84.302L73.25 59.435c-2.266-2.266-5.367-3.16-8.329-2.723a35.642 35.642 0 0 0 6.74-20.872C71.66 16.081 55.598 0 35.84 0 16.081 0 0 16.081 0 35.84c0 19.759 16.081 35.84 35.84 35.84 7.772 0 14.968-2.505 20.852-6.719-.06.457-.12.915-.12 1.392a9.73 9.73 0 0 0 2.863 6.917l24.867 24.868A9.696 9.696 0 0 0 91.22 101a9.73 9.73 0 0 0 6.918-2.862A9.696 9.696 0 0 0 101 91.22c-.02-2.624-1.034-5.069-2.882-6.918zM35.84 68.42C17.87 68.4 3.26 53.79 3.26 35.84c0-17.97 14.61-32.58 32.58-32.58s32.58 14.61 32.58 32.58-14.61 32.58-32.58 32.58zm59.972 27.392c-2.465 2.465-6.759 2.465-9.224 0L61.741 70.945a6.464 6.464 0 0 1-1.908-4.612c0-1.75.676-3.38 1.908-4.612a6.502 6.502 0 0 1 4.612-1.908c1.67 0 3.34.636 4.611 1.908l24.848 24.887a6.463 6.463 0 0 1 1.908 4.612c0 1.73-.676 3.36-1.908 4.592z"/></defs></svg>