<svg width="1116" height="140" xmlns="http://www.w3.org/2000/svg" xmlns:xlink="http://www.w3.org/1999/xlink"><g transform="matrix(4 0 0 4 2.6 16.6)" fill="#34133D"><use xlink:href="#path0_fill"/><use xlink:href="#path1_fill"/><use xlink:href="#path2_fill"/><use xlink:href="#path3_fill"/><use xlink:href="#path4_fill"/><use xlink:href="#path5_fill"/></g><use xlink:href="#path6_fill" transform="matrix(4 0 0 4 608 0)" fill="#34133D"/><g transform="matrix(4 0 0 4 654.68 8.212)" fill="#1F0B24"><use xlink:href="#path7_fill"/><use xlink:href="#path8_fill"/><use xlink:href="#path9_fill"/><use xlink:href="#path10_fill"/><use xlink:href="#path11_fill"/><use xlink:href="#path12_fill"/><use xlink:href="#path13_fill"/><use xlink:href="#path14_fill"/><use xlink:href="#path15_fill"/><use xlink:href="#path16_fill"/><use xlink:href="#path17_fill"/><use xlink:href="#path18_fill"/><use xlink:href="#path19_fill"/><use xlink:href="#path20_fill"/><use xlink:href="#path21_fill"/><use xlink:href="#path22_fill"/><use xlink:href="#path23_fill"/><use xlink:href="#path24_fill"/><use xlink:href="#path25_fill"/><use xlink:href="#path26_fill"/><use xlink:href="#path27_fill"/><use xlink:href="#path28_fill"/><use xlink:href="#path29_fill"/><use xlink:href="#path30_fill"/><use xlink:href="#path31_fill"/><use xlink:href="#path32_fill"/><use xlink:href="#path33_fill"/><use xlink:href="#path34_fill"/><use xlink:href="#path35_fill"/><use xlink:href="#path36_fill"/></g><defs><path id="path0_fill" d="M12.775 17.5L18.725.35h6.825l-9.275 24.5h-7L0 .35h6.825l5.95 17.15z"/><path id="path1_fill" d="M34.649 7v17.85h-6.125V11.725h-2.625V7h8.75zm-6.125-7h6.125v4.9h-6.125V0z"/><path id="path2_fill" d="M50.585 6.3h6.475l-7 18.55h-7l-7-18.55h6.475l4.025 12.6 4.025-12.6z"/><path id="path3_fill" d="M77.02 19.6c0 1.75-.501 3.127-1.504 4.13-.98.98-2.346 1.47-4.096 1.47h-8.05c-1.75 0-3.126-.49-4.13-1.47-.98-1.003-1.47-2.38-1.47-4.13v-8.05c0-1.75.49-3.115 1.47-4.095 1.004-1.003 2.38-1.505 4.13-1.505h8.05c1.75 0 3.115.502 4.096 1.505 1.003.98 1.504 2.345 1.504 4.095v8.05zm-6.124-7.525c0-.933-.467-1.4-1.4-1.4h-4.2c-.934 0-1.4.467-1.4 1.4v7c0 .933.466 1.4 1.4 1.4h4.2c.933 0 1.4-.467 1.4-1.4v-7z"/><path id="path4_fill" d="M96.96 25.2c-2.287 0-3.967-.537-5.04-1.61-1.074-1.073-1.61-2.753-1.61-5.04V7.35c0-2.45.548-4.223 1.645-5.32C93.075.91 94.86.35 97.31.35h12.6v4.9h-11.2c-1.4 0-2.1.7-2.1 2.1v11.2c0 .537.151.968.455 1.295.326.303.758.455 1.295.455h2.31c.863-.023 1.668-.047 2.415-.07a99.93 99.93 0 0 0 2.625-.105V15.05h-4.55v-4.2h10.85v13.475a130.8 130.8 0 0 1-5.285.455c-1.517.117-3.15.21-4.9.28-1.75.093-3.372.14-4.865.14z"/><path id="path5_fill" d="M131.266 7c0-1.4-.7-2.1-2.1-2.1h-5.95c-1.4 0-2.1.7-2.1 2.1v11.2c0 1.4.7 2.1 2.1 2.1h5.95c1.4 0 2.1-.7 2.1-2.1V7zm6.3 11.2c0 2.45-.56 4.235-1.68 5.355-1.096 1.097-2.87 1.645-5.32 1.645h-8.75c-2.45 0-4.235-.548-5.355-1.645-1.096-1.12-1.645-2.905-1.645-5.355V7c0-2.45.549-4.223 1.645-5.32C117.581.56 119.366 0 121.816 0h8.75c2.45 0 4.224.56 5.32 1.68 1.12 1.097 1.68 2.87 1.68 5.32v11.2z"/><path id="path6_fill" fill-rule="evenodd" d="M0 35V0h1v35H0z"/><path id="path7_fill" d="M5.84 7.478c0 .816-.296 1.453-.889 1.91-.592.457-1.396.686-2.412.686-1.1 0-1.947-.142-2.539-.426v-1.04c.38.16.796.287 1.244.38.449.093.893.14 1.333.14.72 0 1.261-.135 1.625-.406.364-.275.546-.656.546-1.143 0-.322-.066-.584-.197-.787-.127-.207-.343-.398-.647-.571-.3-.174-.76-.37-1.378-.59-.863-.31-1.48-.676-1.853-1.099C.305 4.11.12 3.557.12 2.875c0-.715.268-1.284.806-1.707C1.464.745 2.175.533 3.06.533c.922 0 1.77.17 2.545.508l-.336.94c-.766-.322-1.511-.483-2.235-.483-.571 0-1.018.123-1.34.368-.32.246-.482.586-.482 1.022 0 .322.06.586.178.794.119.203.318.391.597.565.283.169.715.357 1.295.565.973.347 1.642.719 2.006 1.117.368.397.552.914.552 1.549z"/><path id="path8_fill" d="M13.584 6.462c0 1.134-.286 2.02-.857 2.66-.571.634-1.36.952-2.368.952-.622 0-1.174-.146-1.656-.438a2.89 2.89 0 0 1-1.118-1.257c-.262-.546-.393-1.185-.393-1.917 0-1.134.283-2.017.85-2.647.568-.635 1.355-.952 2.362-.952.973 0 1.745.324 2.317.971.575.647.863 1.523.863 2.628zm-5.3 0c0 .889.177 1.566.533 2.031.355.466.878.698 1.568.698.69 0 1.212-.23 1.568-.691.36-.466.54-1.145.54-2.038 0-.885-.18-1.555-.54-2.012-.356-.462-.883-.692-1.58-.692-.69 0-1.211.226-1.562.679-.352.453-.527 1.128-.527 2.025z"/><path id="path9_fill" d="M18.573 3.809h-1.77v6.138h-1.055V3.809h-1.244v-.476l1.245-.381v-.388c0-1.71.746-2.564 2.24-2.564.368 0 .8.074 1.295.222l-.273.844c-.406-.13-.753-.196-1.04-.196-.399 0-.693.133-.883.4-.19.262-.286.685-.286 1.27v.45h1.771v.819z"/><path id="path10_fill" d="M22.09 9.204c.186 0 .366-.013.54-.038.173-.03.31-.06.412-.089v.806c-.114.055-.284.1-.508.134a3.53 3.53 0 0 1-.596.057c-1.346 0-2.02-.71-2.02-2.127V3.81h-.996V3.3l.997-.438.444-1.486h.61V2.99h2.018v.819h-2.018v4.094c0 .419.1.74.298.965.199.224.472.336.819.336z"/><path id="path11_fill" d="M30.12 9.947l-1.276-4.082c-.08-.25-.23-.817-.45-1.7h-.052c-.169.74-.317 1.31-.444 1.713l-1.314 4.069h-1.219L23.467 2.99h1.105l1.022 3.992c.237.914.372 1.53.406 1.848h.05a16.905 16.905 0 0 1 .495-1.847l1.277-3.993h1.142l1.245 3.992c.236.728.397 1.34.482 1.835h.05c.018-.152.062-.387.134-.705.076-.317.518-2.025 1.327-5.122h1.092L31.37 9.947h-1.25z"/><path id="path12_fill" d="M38.835 9.947l-.21-.99h-.05c-.347.435-.694.732-1.041.888-.343.153-.773.229-1.289.229-.69 0-1.231-.178-1.625-.533-.39-.356-.584-.862-.584-1.518 0-1.405 1.124-2.14 3.37-2.209l1.181-.038v-.431c0-.546-.118-.948-.355-1.206-.233-.263-.607-.394-1.124-.394-.58 0-1.235.178-1.967.533l-.324-.806a4.965 4.965 0 0 1 1.123-.438c.41-.106.821-.159 1.232-.159.83 0 1.443.185 1.84.553.403.368.604.958.604 1.77v4.749h-.781zm-2.38-.743c.656 0 1.17-.18 1.542-.54.377-.36.565-.863.565-1.51v-.629l-1.054.045c-.838.03-1.443.16-1.815.393-.368.229-.552.586-.552 1.073 0 .381.114.67.342.87.233.199.557.298.972.298z"/><path id="path13_fill" d="M44.967 2.863c.309 0 .586.025.831.076l-.146.978a3.589 3.589 0 0 0-.761-.096c-.563 0-1.046.229-1.448.686-.397.457-.596 1.026-.596 1.707v3.733h-1.054V2.99h.87l.12 1.288h.051c.258-.452.57-.802.933-1.047a2.1 2.1 0 0 1 1.2-.368z"/><path id="path14_fill" d="M50.039 10.074c-1.029 0-1.841-.313-2.438-.94-.592-.626-.889-1.496-.889-2.609 0-1.121.275-2.012.826-2.672.554-.66 1.297-.99 2.228-.99.871 0 1.561.288 2.069.863.508.571.762 1.327.762 2.266v.667h-4.793c.021.816.227 1.436.616 1.86.393.423.946.634 1.657.634.749 0 1.49-.156 2.221-.47v.94c-.372.16-.725.275-1.06.343a5.72 5.72 0 0 1-1.2.108zm-.286-6.329c-.559 0-1.005.182-1.34.546-.33.364-.524.868-.583 1.51h3.637c0-.664-.148-1.171-.444-1.523-.297-.355-.72-.533-1.27-.533z"/><path id="path15_fill" d="M62.512 9.014h-.057c-.487.706-1.215 1.06-2.184 1.06-.91 0-1.619-.311-2.127-.933-.503-.622-.755-1.507-.755-2.654s.254-2.037.762-2.672c.508-.635 1.214-.952 2.12-.952.944 0 1.667.343 2.17 1.028h.083l-.044-.501-.025-.49V.07h1.053v9.877h-.857l-.14-.933zm-2.108.177c.72 0 1.24-.194 1.562-.584.326-.393.489-1.026.489-1.898v-.222c0-.986-.165-1.688-.495-2.107-.326-.423-.849-.635-1.568-.635-.618 0-1.092.241-1.422.724-.326.478-.489 1.155-.489 2.031 0 .889.163 1.56.489 2.012.326.453.804.68 1.434.68z"/><path id="path16_fill" d="M68.688 10.074c-1.028 0-1.84-.313-2.438-.94-.592-.626-.888-1.496-.888-2.609 0-1.121.275-2.012.825-2.672.554-.66 1.297-.99 2.228-.99.872 0 1.562.288 2.07.863.507.571.761 1.327.761 2.266v.667h-4.792c.02.816.226 1.436.615 1.86.394.423.946.634 1.657.634.75 0 1.49-.156 2.222-.47v.94c-.373.16-.726.275-1.06.343a5.72 5.72 0 0 1-1.2.108zm-.286-6.329c-.558 0-1.005.182-1.339.546-.33.364-.525.868-.584 1.51h3.637c0-.664-.148-1.171-.444-1.523-.296-.355-.72-.533-1.27-.533z"/><path id="path17_fill" d="M82.12 2.99v.666l-1.289.153c.118.148.224.342.317.584.094.237.14.505.14.806 0 .681-.233 1.225-.698 1.631-.466.406-1.105.61-1.917.61-.207 0-.402-.017-.584-.051-.449.237-.673.535-.673.895 0 .19.078.332.235.425.157.089.425.133.806.133h1.232c.753 0 1.33.159 1.732.476.407.318.61.779.61 1.384 0 .77-.31 1.356-.927 1.758-.618.407-1.52.61-2.704.61-.91 0-1.612-.17-2.108-.508-.49-.338-.736-.817-.736-1.435 0-.423.136-.789.406-1.098.271-.309.652-.518 1.143-.628a1.124 1.124 0 0 1-.45-.375 1.003 1.003 0 0 1-.178-.59c0-.254.067-.476.203-.666.135-.19.349-.375.64-.553a1.896 1.896 0 0 1-.881-.755 2.235 2.235 0 0 1-.337-1.219c0-.762.229-1.348.686-1.758.457-.415 1.104-.622 1.942-.622.364 0 .692.042.984.127h2.406zm-5.548 8.125c0 .376.159.662.476.857.317.194.772.292 1.365.292.884 0 1.538-.134 1.961-.4.427-.263.641-.62.641-1.073 0-.377-.116-.639-.349-.787-.233-.144-.67-.216-1.314-.216H78.09c-.478 0-.85.114-1.117.343-.267.228-.4.556-.4.984zm.571-5.897c0 .486.138.855.413 1.104.275.25.658.375 1.149.375 1.028 0 1.542-.5 1.542-1.498 0-1.046-.52-1.568-1.561-1.568-.496 0-.876.133-1.143.4-.267.266-.4.662-.4 1.187z"/><path id="path18_fill" d="M86.487 10.074c-1.028 0-1.841-.313-2.438-.94-.592-.626-.888-1.496-.888-2.609 0-1.121.275-2.012.825-2.672.554-.66 1.297-.99 2.228-.99.872 0 1.561.288 2.07.863.507.571.76 1.327.76 2.266v.667h-4.792c.022.816.227 1.436.616 1.86.394.423.946.634 1.657.634a5.59 5.59 0 0 0 2.222-.47v.94c-.373.16-.726.275-1.06.343a5.72 5.72 0 0 1-1.2.108zM86.2 3.745c-.558 0-1.005.182-1.34.546-.33.364-.524.868-.583 1.51h3.637c0-.664-.148-1.171-.444-1.523-.297-.355-.72-.533-1.27-.533z"/><path id="path19_fill" d="M95.335 8.049c0 .647-.24 1.147-.723 1.498s-1.16.527-2.031.527c-.923 0-1.642-.146-2.159-.438v-.978c.335.17.692.303 1.073.4a4.53 4.53 0 0 0 1.111.146c.55 0 .973-.087 1.27-.26.296-.178.444-.447.444-.806 0-.271-.119-.502-.356-.692-.232-.195-.69-.423-1.37-.686-.648-.241-1.11-.45-1.384-.628a1.957 1.957 0 0 1-.61-.616 1.618 1.618 0 0 1-.197-.819c0-.567.231-1.013.692-1.34.462-.33 1.094-.494 1.898-.494.75 0 1.481.152 2.197.457l-.375.857c-.698-.288-1.331-.432-1.898-.432-.5 0-.876.078-1.13.235-.254.157-.38.372-.38.647 0 .187.046.345.139.477.097.13.252.256.463.374.212.119.618.29 1.219.514.825.3 1.382.603 1.67.908.291.305.437.688.437 1.149z"/><path id="path20_fill" d="M99.303 9.204c.186 0 .366-.013.54-.038.173-.03.31-.06.412-.089v.806c-.114.055-.284.1-.508.134a3.53 3.53 0 0 1-.597.057c-1.345 0-2.018-.71-2.018-2.127V3.81h-.997V3.3l.997-.438.444-1.486h.61V2.99h2.018v.819h-2.018v4.094c0 .419.099.74.298.965.199.224.472.336.819.336z"/><path id="path21_fill" d="M105.93 9.947l-.21-.99h-.051c-.347.435-.694.732-1.041.888-.342.153-.772.229-1.288.229-.69 0-1.232-.178-1.625-.533-.389-.356-.584-.862-.584-1.518 0-1.405 1.123-2.14 3.37-2.209l1.181-.038v-.431c0-.546-.118-.948-.355-1.206-.233-.263-.608-.394-1.124-.394-.58 0-1.236.178-1.968.533l-.323-.806a4.95 4.95 0 0 1 1.123-.438 4.921 4.921 0 0 1 1.232-.159c.829 0 1.443.185 1.84.553.402.368.603.958.603 1.77v4.749h-.78zm-2.381-.743c.656 0 1.17-.18 1.543-.54.376-.36.565-.863.565-1.51v-.629l-1.054.045c-.838.03-1.443.16-1.815.393-.369.229-.553.586-.553 1.073 0 .381.115.67.343.87.233.199.557.298.971.298zm1.562-7.147c-.182 0-.36-.038-.533-.115a8.45 8.45 0 0 1-.515-.26 6.749 6.749 0 0 0-.482-.26.947.947 0 0 0-.444-.12c-.212 0-.373.063-.483.19-.105.127-.188.32-.247.577h-.622c.055-.512.203-.912.444-1.2a1.18 1.18 0 0 1 .946-.437c.194 0 .383.04.565.12.182.076.355.163.52.26.165.094.324.18.476.26a.973.973 0 0 0 .432.115c.207 0 .362-.061.463-.184.102-.127.184-.322.248-.584h.628c-.055.512-.203.914-.444 1.206-.237.288-.554.432-.952.432z"/><path id="path22_fill" d="M114.893 6.462c0 1.134-.286 2.02-.857 2.66-.572.634-1.361.952-2.368.952-.622 0-1.174-.146-1.657-.438a2.89 2.89 0 0 1-1.117-1.257c-.262-.546-.394-1.185-.394-1.917 0-1.134.284-2.017.851-2.647.567-.635 1.354-.952 2.361-.952.974 0 1.746.324 2.317.971.576.647.864 1.523.864 2.628zm-5.301 0c0 .889.178 1.566.533 2.031.356.466.879.698 1.568.698.69 0 1.213-.23 1.568-.691.36-.466.54-1.145.54-2.038 0-.885-.18-1.555-.54-2.012-.355-.462-.882-.692-1.58-.692-.69 0-1.211.226-1.562.679-.351.453-.527 1.128-.527 2.025z"/><path id="path23_fill" d="M5.18 27.014h-.057c-.487.706-1.215 1.06-2.184 1.06-.91 0-1.619-.311-2.127-.933-.503-.622-.755-1.507-.755-2.654 0-1.146.254-2.037.762-2.672.508-.635 1.214-.952 2.12-.952.944 0 1.667.343 2.17 1.028h.083l-.044-.501-.025-.49v-2.83h1.053v9.877H5.32l-.14-.933zm-2.108.177c.72 0 1.24-.194 1.562-.584.326-.393.489-1.026.489-1.898v-.222c0-.986-.165-1.688-.496-2.107-.325-.423-.848-.635-1.567-.635-.618 0-1.092.241-1.422.724-.326.478-.49 1.155-.49 2.031 0 .889.164 1.56.49 2.012.326.453.804.68 1.434.68z"/><path id="path24_fill" d="M11.356 28.074c-1.028 0-1.84-.313-2.438-.94-.592-.626-.888-1.496-.888-2.609 0-1.121.275-2.012.825-2.672.554-.66 1.297-.99 2.228-.99.872 0 1.562.288 2.07.863.507.571.761 1.327.761 2.266v.667H9.122c.02.816.226 1.436.615 1.86.394.423.946.634 1.657.634.75 0 1.49-.156 2.222-.47v.94a5.38 5.38 0 0 1-1.06.343 5.72 5.72 0 0 1-1.2.108zm-.286-6.329c-.558 0-1.005.182-1.339.546-.33.364-.525.867-.584 1.51h3.637c0-.664-.148-1.171-.444-1.523-.296-.355-.72-.533-1.27-.533z"/><path id="path25_fill" d="M22.268 20.863c.308 0 .586.025.831.076l-.146.977a3.587 3.587 0 0 0-.762-.095c-.562 0-1.045.229-1.447.686-.398.457-.596 1.026-.596 1.707v3.733h-1.054V20.99h.87l.12 1.288h.05c.259-.452.57-.802.934-1.047a2.1 2.1 0 0 1 1.2-.368z"/><path id="path26_fill" d="M27.34 28.074c-1.029 0-1.841-.313-2.438-.94-.593-.626-.889-1.496-.889-2.609 0-1.121.275-2.012.825-2.672.555-.66 1.297-.99 2.228-.99.872 0 1.562.288 2.07.863.508.571.762 1.327.762 2.266v.667h-4.793c.021.816.226 1.436.616 1.86.393.423.945.634 1.656.634.75 0 1.49-.156 2.222-.47v.94a5.38 5.38 0 0 1-1.06.343 5.72 5.72 0 0 1-1.2.108zm-.286-6.329c-.559 0-1.005.182-1.34.546-.33.364-.524.867-.584 1.51h3.638c0-.664-.149-1.171-.445-1.523-.296-.355-.72-.533-1.27-.533z"/><path id="path27_fill" d="M33.224 27.947l-2.641-6.957h1.13l1.498 4.126c.339.965.537 1.59.597 1.879h.05c.047-.225.193-.688.438-1.39.25-.707.806-2.245 1.67-4.615h1.13l-2.64 6.957h-1.232z"/><path id="path28_fill" d="M41.152 28.074c-1.029 0-1.841-.313-2.438-.94-.592-.626-.888-1.496-.888-2.609 0-1.121.275-2.012.825-2.672.554-.66 1.297-.99 2.228-.99.872 0 1.561.288 2.07.863.507.571.761 1.327.761 2.266v.667h-4.793c.022.816.227 1.436.616 1.86.394.423.946.634 1.657.634a5.59 5.59 0 0 0 2.222-.47v.94a5.38 5.38 0 0 1-1.06.343 5.72 5.72 0 0 1-1.2.108zm-.286-6.329c-.558 0-1.005.182-1.34.546-.33.364-.524.867-.583 1.51h3.637c0-.664-.148-1.171-.444-1.523-.297-.355-.72-.533-1.27-.533z"/><path id="path29_fill" d="M50.273 27.947v-4.5c0-.568-.129-.99-.387-1.27s-.662-.42-1.212-.42c-.728 0-1.261.198-1.6.591-.338.394-.508 1.043-.508 1.949v3.65h-1.053V20.99h.857l.171.952h.05a2.13 2.13 0 0 1 .908-.794c.39-.19.824-.285 1.302-.285.838 0 1.468.203 1.891.61.424.401.635 1.047.635 1.935v4.539h-1.054z"/><path id="path30_fill" d="M58.233 27.014h-.057c-.486.706-1.214 1.06-2.183 1.06-.91 0-1.619-.311-2.127-.933-.503-.622-.755-1.507-.755-2.654 0-1.146.254-2.037.762-2.672.507-.635 1.214-.952 2.12-.952.943 0 1.667.343 2.17 1.028h.083l-.044-.501-.026-.49v-2.83h1.054v9.877h-.857l-.14-.933zm-2.107.177c.72 0 1.24-.194 1.562-.584.325-.393.488-1.026.488-1.898v-.222c0-.986-.165-1.688-.495-2.107-.326-.423-.848-.635-1.568-.635-.618 0-1.091.241-1.422.724-.325.478-.488 1.155-.488 2.031 0 .889.163 1.56.488 2.012.326.453.804.68 1.435.68z"/><path id="path31_fill" d="M65.749 27.947l-.21-.99h-.05c-.347.435-.694.732-1.041.888-.343.153-.772.229-1.289.229-.69 0-1.231-.178-1.625-.534-.39-.355-.584-.86-.584-1.517 0-1.404 1.124-2.14 3.37-2.209l1.181-.038v-.431c0-.546-.118-.948-.355-1.206-.233-.263-.607-.394-1.124-.394-.58 0-1.235.178-1.967.533l-.324-.806a4.962 4.962 0 0 1 1.123-.438 4.918 4.918 0 0 1 1.232-.159c.83 0 1.443.185 1.84.553.403.368.604.958.604 1.77v4.749h-.781zm-2.38-.743c.656 0 1.17-.18 1.542-.54.377-.36.565-.863.565-1.51v-.629l-1.054.045c-.837.03-1.443.16-1.815.393-.368.229-.552.586-.552 1.073 0 .381.114.67.343.87.232.199.556.298.97.298z"/><path id="path32_fill" d="M73.195 26.049c0 .647-.241 1.147-.724 1.498-.482.351-1.16.527-2.031.527-.923 0-1.642-.146-2.158-.438v-.978c.334.17.692.303 1.073.4.385.097.755.146 1.11.146.55 0 .974-.087 1.27-.26.296-.178.444-.447.444-.806 0-.271-.118-.502-.355-.692-.233-.195-.69-.423-1.371-.686-.648-.241-1.11-.45-1.384-.628a1.957 1.957 0 0 1-.61-.616 1.618 1.618 0 0 1-.196-.819c0-.567.23-1.013.692-1.34.46-.33 1.094-.494 1.898-.494.749 0 1.48.152 2.196.457l-.375.857c-.698-.288-1.33-.432-1.898-.432-.499 0-.876.078-1.13.235-.253.157-.38.372-.38.647 0 .187.046.345.14.477.097.13.251.256.463.374.211.118.618.29 1.218.514.826.3 1.382.603 1.67.908.292.305.438.688.438 1.149z"/><path id="path33_fill" d="M83.751 18.666h1.162l-3.346 9.28h-1.066l-3.326-9.28h1.142l2.133 6.005c.246.69.44 1.36.584 2.013.152-.686.351-1.37.597-2.05l2.12-5.968z"/><path id="path34_fill" d="M87.09 27.947h-1.054V20.99h1.054v6.957zm-1.143-8.842c0-.242.06-.417.178-.527a.615.615 0 0 1 .444-.172c.17 0 .316.057.438.172.123.114.184.29.184.527 0 .236-.061.414-.184.533a.62.62 0 0 1-.438.171.615.615 0 0 1-.444-.171c-.118-.119-.178-.297-.178-.534z"/><path id="path35_fill" d="M90.848 27.947l-2.641-6.957h1.13l1.498 4.126c.339.965.537 1.59.597 1.879h.05c.047-.225.193-.688.438-1.39.25-.707.807-2.245 1.67-4.615h1.13l-2.64 6.957h-1.232z"/><path id="path36_fill" d="M101.842 24.462c0 1.134-.286 2.02-.857 2.66-.571.634-1.36.952-2.368.952-.622 0-1.174-.146-1.657-.438a2.89 2.89 0 0 1-1.117-1.257c-.262-.546-.393-1.185-.393-1.917 0-1.134.283-2.017.85-2.647.567-.635 1.355-.952 2.362-.952.973 0 1.745.323 2.317.971.575.647.863 1.523.863 2.628zm-5.3 0c0 .889.177 1.566.533 2.031.355.466.878.698 1.568.698.69 0 1.212-.23 1.567-.691.36-.466.54-1.145.54-2.038 0-.884-.18-1.555-.54-2.012-.355-.462-.882-.692-1.58-.692-.69 0-1.21.226-1.562.679-.35.453-.526 1.128-.526 2.025z"/></defs></svg>