<svg width="146" height="56" xmlns="http://www.w3.org/2000/svg" xmlns:xlink="http://www.w3.org/1999/xlink"><use xlink:href="#path0_fill" transform="translate(47.06 18.809) scale(.03543)" fill="#609"/><use xlink:href="#path1_fill" transform="translate(46.35) scale(.03543)" fill="#609"/><use xlink:href="#path2_fill" transform="translate(108.69 18.464) scale(.03543)" fill="#609"/><use xlink:href="#path3_fill" transform="translate(65.02 18.151) scale(.03543)" fill="#609"/><use xlink:href="#path4_fill" transform="translate(0 18.151) scale(.03543)" fill="#609"/><defs><path id="path0_fill" d="M0 882.997V131.964C0 55.592 50.97 0 120.818 0h112.998c69.848 0 120.549 55.322 120.549 131.964v751.033c0 76.372-50.701 131.963-120.549 131.963H120.818C50.97 1014.96 0 959.638 0 882.997z"/><path id="path1_fill" d="M399.132 199.7c0 110.374-89.265 199.7-199.566 199.7C89.266 399.4 0 310.074 0 199.7 0 89.325 89.265 0 199.566 0s199.566 89.325 199.566 199.7z"/><path id="path2_fill" d="M0 516.251C0 231.544 235.974 0 526.423 0c290.18 0 526.427 231.544 526.427 516.251S816.603 1032.5 526.423 1032.5 0 800.958 0 516.251zm320.385 0c0 113.613 92.232 206.176 206.038 206.176 113.537 0 206.039-92.563 206.039-206.176 0-113.883-92.502-206.446-206.039-206.446-113.806 0-206.038 92.563-206.038 206.446z"/><path id="path3_fill" d="M587.853 1013.56c-64.994 0-129.179-11.87-160.732-69.624-31.553-57.482-386.188-679.789-413.965-728.905-25.35-44.797-16.181-122.518 46.116-153.553 38.025-18.89 56.903-28.605 90.074-45.337 58.791-29.415 132.146-23.208 178.262 57.212 27.777 48.035 258.627 510.044 258.627 510.044h2.157S819.511 121.658 847.289 73.352c46.116-80.42 119.739-86.626 178.531-57.21 33.44 16.73 52.05 26.446 90.07 45.337 62.3 30.764 71.74 108.755 46.12 153.552-33.98 59.91-380.794 671.963-413.965 728.905-33.441 56.944-95.738 69.624-160.192 69.624z"/><path id="path4_fill" d="M587.583 1013.56c-64.994 0-129.179-11.87-160.462-69.624-31.553-57.482-386.188-679.789-413.965-728.905-25.35-44.797-16.181-122.518 46.116-153.553 37.756-18.89 56.634-28.605 90.074-45.337 58.522-29.145 132.146-22.938 178.262 57.212 27.777 48.035 258.357 510.044 258.357 510.044h2.427S819.511 121.658 847.019 73.352c46.116-80.42 119.74-86.626 178.261-57.21 33.44 16.73 52.32 26.716 90.07 45.337 62.57 30.764 71.74 108.755 46.39 153.552-34.25 59.91-380.794 671.963-414.234 728.905-33.172 56.944-95.469 69.624-160.193 69.624h.27z"/></defs></svg>